<?xml version='1.0' encoding='ascii'?>
<svg xmlns="http://www.w3.org/2000/svg" version="1.1" width="3840" height="3840">
    <g id="ViewLayer_LineSet" xmlnsInkscape="http://www.inkscape.org/namespaces/inkscape" inkscapeGroupmode="lineset" inkscapeLabel="ViewLayer_LineSet">
        <g xmlnsInkscape="http://www.inkscape.org/namespaces/inkscape" inkscapeGroupmode="layer" id="strokes" inkscapeLabel="strokes">
            <path fill="none" stroke-width="3.0" stroke-linecap="butt" stroke-opacity="1.0" stroke="#61DAFB" stroke-linejoin="round" d=" M 2263.312, 1684.546 2263.770, 1684.148 2271.325, 1677.597 2273.845, 1675.412 2281.401, 1668.861 2288.956, 1662.310 2296.511, 1655.758 2304.067, 1649.207 2306.668, 1646.951 2307.639, 1646.078 2315.073, 1639.389 2320.361, 1634.630 2323.926, 1631.423 2327.661, 1628.062 2329.646, 1626.275 2330.263, 1625.721 2332.074, 1624.091 2332.368, 1623.826 2339.802, 1617.137 2347.236, 1610.449 2351.119, 1606.954 2343.685, 1613.643 2336.250, 1620.331 2332.283, 1623.900 2332.000, 1624.154 2330.177, 1625.795 2329.516, 1626.389 2327.531, 1628.174 2323.634, 1631.681 2320.104, 1634.856 2312.670, 1641.545 2306.905, 1646.730 2307.639, 1646.078 2315.112, 1639.433 2322.585, 1632.788 2330.058, 1626.143 2333.093, 1623.444 2337.513, 1619.514 2337.787, 1619.270 2339.469, 1617.774 2341.716, 1615.777 2342.229, 1615.320 2349.702, 1608.675 2352.845, 1605.880 2345.350, 1612.500 2338.706, 1618.369 2337.187, 1619.710 2336.721, 1620.122 2334.317, 1622.245 2331.635, 1624.614 2324.140, 1631.234 2323.926, 1631.423 2323.634, 1631.681 2316.139, 1638.301 2308.644, 1644.921 2307.584, 1645.857 2315.096, 1639.256 2320.104, 1634.856 2320.361, 1634.630 2327.874, 1628.030 2333.093, 1623.444 2340.122, 1617.268 2341.789, 1615.804 2342.233, 1615.414 2346.948, 1611.270 2354.404, 1604.720 2346.862, 1611.287 2342.229, 1615.320 2340.714, 1616.639 2337.187, 1619.710 2336.365, 1620.426 2331.611, 1624.565 2329.646, 1626.275 2329.516, 1626.389 2321.974, 1632.956 2314.432, 1639.522 2308.378, 1644.793 2315.931, 1638.240 2323.484, 1631.686 2327.531, 1628.174 2327.661, 1628.062 2331.635, 1624.614 2337.513, 1619.514 2338.357, 1618.781 2341.789, 1615.804 2342.594, 1615.105 2350.147, 1608.552 2355.636, 1603.789 2348.058, 1610.314 2346.948, 1611.270 2341.716, 1615.777 2340.714, 1616.639 2338.706, 1618.369 2332.368, 1623.826 2332.283, 1623.900 2330.445, 1625.483 2322.867, 1632.009 2315.290, 1638.534 2309.028, 1643.927 2316.620, 1637.418 2324.212, 1630.909 2330.177, 1625.795 2330.263, 1625.721 2331.611, 1624.565 2334.317, 1622.245 2337.787, 1619.270 2338.357, 1618.781 2340.122, 1617.268 2347.714, 1610.759 2355.306, 1604.250 2356.492, 1603.233 2348.888, 1609.728 2342.594, 1615.105 2342.233, 1615.414 2339.469, 1617.774 2336.721, 1620.122 2336.365, 1620.426 2332.074, 1624.091 2332.000, 1624.154 2330.445, 1625.483 2322.841, 1631.978 2315.238, 1638.473 2309.448, 1643.418 2305.220, 1646.790 2304.855, 1647.082 2297.036, 1653.316 2290.183, 1658.782 2282.364, 1665.017 2274.546, 1671.252 2266.728, 1677.487 2260.363, 1682.562 2268.187, 1676.335 2276.011, 1670.107 2283.835, 1663.879 2291.659, 1657.652 2299.483, 1651.424 2304.222, 1647.652 2304.640, 1647.320 2309.595, 1643.375 2304.736, 1647.231 2304.337, 1647.549 2296.504, 1653.765 2290.183, 1658.782 2282.350, 1664.999 2274.517, 1671.215 2266.684, 1677.432 2260.255, 1682.534 2252.232, 1688.503 2244.208, 1694.471 2236.185, 1700.440 2228.161, 1706.408 2220.138, 1712.377 2212.115, 1718.345 2210.160, 1719.800 2201.952, 1725.512 2193.744, 1731.225 2185.537, 1736.938 2177.329, 1742.650 2169.121, 1748.363 2160.538, 1754.337 2152.141, 1759.767 2143.743, 1765.197 2135.346, 1770.627 2126.949, 1776.057 2118.551, 1781.487 2112.625, 1785.319 2104.022, 1790.417 2095.419, 1795.515 2086.816, 1800.612 2078.213, 1805.710 2069.610, 1810.807 2068.122, 1811.688 2067.679, 1811.951 2068.425, 1811.530 2068.122, 1811.688 2059.262, 1816.324 2050.401, 1820.959 2041.540, 1825.594 2032.679, 1830.230 2028.693, 1832.315 2028.042, 1832.656 2027.862, 1832.750 2028.078, 1832.642 2028.906, 1832.227 2028.693, 1832.315 2025.232, 1833.745 2015.990, 1837.562 2012.426, 1839.034 2003.183, 1842.851 1995.865, 1845.874 2005.122, 1842.093 2012.638, 1839.023 2021.895, 1835.242 2031.153, 1831.460 2031.640, 1831.261 2028.078, 1832.642 2028.042, 1832.656 2025.232, 1833.745 2015.908, 1837.358 2011.455, 1839.084 2002.131, 1842.697 1999.106, 1843.869 1989.225, 1845.410 1979.345, 1846.950 1974.296, 1847.737 1971.316, 1847.111 1964.071, 1845.589 1963.283, 1845.424 1963.136, 1845.393 1960.411, 1844.821 1956.848, 1844.072 1960.171, 1844.858 1963.235, 1845.582 1963.410, 1845.623 1964.332, 1845.841 1973.112, 1847.915 1971.316, 1847.111 1964.722, 1844.161 1963.790, 1843.744 1960.727, 1842.373 1958.172, 1841.229 1962.138, 1844.556 1963.136, 1845.393 1963.261, 1845.498 1963.410, 1845.623 1968.832, 1850.170 1964.332, 1845.841 1964.071, 1845.589 1963.422, 1844.965 1962.879, 1844.443 1960.727, 1842.373 1957.413, 1839.184 1954.165, 1830.145 1951.461, 1822.617 1953.626, 1832.379 1954.717, 1837.299 1954.165, 1830.145 1953.396, 1820.174 1953.026, 1815.384 1954.135, 1805.679 1955.497, 1795.773 1956.859, 1785.866 1957.058, 1784.417 1957.889, 1778.374 1956.137, 1788.219 1955.482, 1791.900 1957.058, 1784.417 1959.120, 1774.632 1961.181, 1764.847 1961.892, 1761.476 1962.050, 1760.642 1963.918, 1750.818 1965.786, 1740.994 1965.936, 1740.207 1968.046, 1730.432 1970.155, 1720.657 1972.014, 1712.042 1973.813, 1702.205 1975.611, 1692.368 1977.001, 1684.766 1978.741, 1674.918 1980.480, 1665.071 1981.075, 1661.700 1982.527, 1651.806 1983.979, 1641.912 1985.432, 1632.018 1985.863, 1629.080 1986.978, 1619.143 1988.094, 1609.205 1989.209, 1599.267 1990.211, 1590.341 1991.049, 1580.376 1991.886, 1570.411 1992.724, 1560.446 1993.561, 1550.481 1994.002, 1545.238 1994.557, 1535.253 1994.842, 1530.117 1995.397, 1520.132 1995.502, 1518.238 1995.521, 1517.886 1996.076, 1507.901 1996.630, 1497.917 1996.726, 1496.194 1996.059, 1506.171 1995.392, 1516.149 1994.808, 1524.894 1994.781, 1525.298 1994.114, 1535.276 1993.447, 1545.254 1992.780, 1555.231 1992.517, 1559.166 1993.315, 1549.198 1994.113, 1539.230 1994.842, 1530.117 1995.640, 1520.149 1996.438, 1510.181 1996.922, 1504.130 " />
            <path fill="none" stroke-width="3.0" stroke-linecap="butt" stroke-opacity="1.0" stroke="#61DAFB" stroke-linejoin="round" d=" M 1996.922, 1504.130 1997.256, 1496.844 1997.715, 1486.855 1998.173, 1476.865 1998.632, 1466.876 1999.090, 1456.886 1999.167, 1455.204 1999.173, 1455.073 1999.203, 1454.419 1999.430, 1449.475 1999.151, 1454.884 1999.115, 1455.580 1999.107, 1455.735 1998.591, 1465.721 1998.076, 1475.708 1997.560, 1485.695 1997.044, 1495.681 1996.529, 1505.668 1996.286, 1510.381 1996.266, 1510.751 " />
            <path fill="none" stroke-width="3.0" stroke-linecap="butt" stroke-opacity="1.0" stroke="#61DAFB" stroke-linejoin="round" d=" M 1996.266, 1510.751 1996.922, 1504.130 1996.310, 1510.144 1996.286, 1510.381 1995.521, 1517.886 1994.808, 1524.894 1993.795, 1534.843 1992.782, 1544.791 1991.769, 1554.740 1990.756, 1564.688 1990.058, 1571.543 1991.074, 1561.594 1992.090, 1551.646 1993.106, 1541.698 1994.122, 1531.750 1994.781, 1525.298 1995.502, 1518.238 1996.266, 1510.751 1996.310, 1510.144 1997.020, 1500.170 1997.256, 1496.844 1997.966, 1486.869 1998.677, 1476.895 1999.386, 1466.920 2000.097, 1456.945 2000.341, 1453.510 2000.410, 1452.204 2000.937, 1442.218 2001.311, 1435.113 2001.564, 1430.324 2001.828, 1425.309 2001.969, 1422.641 2002.013, 1421.815 2002.141, 1419.382 2002.162, 1418.987 2002.689, 1409.000 2003.215, 1399.014 2003.490, 1393.796 2002.963, 1403.782 2002.435, 1413.768 2002.153, 1419.100 2002.133, 1419.479 2002.004, 1421.929 2001.957, 1422.814 2001.816, 1425.479 2001.540, 1430.714 2001.289, 1435.456 2000.762, 1445.442 2000.352, 1453.186 2000.410, 1452.204 2000.995, 1442.221 2001.581, 1432.238 2002.166, 1422.255 2002.404, 1418.200 2002.750, 1412.298 2002.771, 1411.935 2002.903, 1409.687 2003.079, 1406.685 2003.120, 1405.997 2003.705, 1396.014 2003.951, 1391.816 2003.333, 1401.797 2002.784, 1410.647 2002.659, 1412.667 2002.620, 1413.291 2002.421, 1416.493 2002.200, 1420.061 2001.581, 1430.042 2001.564, 1430.324 2001.540, 1430.714 2000.921, 1440.695 2000.302, 1450.676 2000.215, 1452.088 2000.859, 1442.109 2001.289, 1435.456 2001.311, 1435.113 2001.956, 1425.134 2002.404, 1418.200 2003.007, 1408.869 2003.150, 1406.653 2003.188, 1406.064 2003.593, 1399.799 2004.233, 1389.894 2003.543, 1399.870 2003.120, 1405.997 2002.981, 1408.008 2002.659, 1412.667 2002.583, 1413.760 2002.148, 1420.051 2001.969, 1422.641 2001.957, 1422.814 2001.268, 1432.790 2000.578, 1442.766 2000.024, 1450.775 2000.731, 1440.800 2001.438, 1430.825 2001.816, 1425.479 2001.828, 1425.309 2002.200, 1420.061 2002.750, 1412.298 2002.829, 1411.191 2003.150, 1406.653 2003.225, 1405.593 2003.932, 1395.618 2004.446, 1388.364 2003.702, 1398.336 2003.593, 1399.799 2003.079, 1406.685 2002.981, 1408.008 2002.784, 1410.647 2002.162, 1418.987 2002.153, 1419.100 2001.973, 1421.518 2001.229, 1431.490 2000.485, 1441.463 1999.871, 1449.702 2000.637, 1439.731 2001.402, 1429.761 2002.004, 1421.929 2002.013, 1421.815 2002.148, 1420.051 2002.421, 1416.493 2002.771, 1411.935 2002.829, 1411.191 2003.007, 1408.869 2003.773, 1398.898 2004.539, 1388.928 2004.658, 1387.366 2003.875, 1397.335 2003.225, 1405.593 2003.188, 1406.064 2002.903, 1409.687 2002.620, 1413.291 2002.583, 1413.760 2002.141, 1419.382 2002.133, 1419.479 2001.973, 1421.518 2001.189, 1431.488 2000.405, 1441.457 1999.808, 1449.046 1999.203, 1454.419 1999.151, 1454.884 1998.031, 1464.821 1997.050, 1473.531 1995.930, 1483.468 1994.810, 1493.405 1993.691, 1503.342 1992.779, 1511.433 1993.908, 1501.497 1995.037, 1491.561 1996.166, 1481.625 1997.294, 1471.689 1998.423, 1461.753 1999.107, 1455.735 1999.167, 1455.204 1999.882, 1448.911 1999.173, 1455.073 1999.115, 1455.580 1997.972, 1465.515 1997.050, 1473.531 1995.907, 1483.465 1994.764, 1493.400 1993.621, 1503.334 1992.683, 1511.489 1991.230, 1521.383 1989.777, 1531.277 1988.324, 1541.171 1986.871, 1551.065 1985.418, 1560.959 1983.965, 1570.853 1983.611, 1573.263 1981.846, 1583.106 1980.082, 1592.949 1978.318, 1602.793 1976.554, 1612.636 1974.790, 1622.479 1972.944, 1632.773 1970.846, 1642.550 1968.748, 1652.328 1966.650, 1662.105 1964.552, 1671.882 1962.454, 1681.660 1960.973, 1688.560 1958.494, 1698.248 1956.015, 1707.936 1953.536, 1717.623 1951.058, 1727.311 1948.579, 1736.999 1948.150, 1738.674 1948.023, 1739.173 1948.252, 1738.348 1948.150, 1738.674 1945.162, 1748.217 1942.175, 1757.760 1939.187, 1767.304 1936.199, 1776.847 1934.855, 1781.140 1934.635, 1781.841 1934.575, 1782.035 1934.651, 1781.805 1934.943, 1780.927 1934.855, 1781.140 1933.418, 1784.598 1929.582, 1793.833 1928.103, 1797.393 1924.267, 1806.628 1921.229, 1813.940 1925.102, 1804.721 1928.245, 1797.236 1932.117, 1788.016 1935.990, 1778.796 1936.193, 1778.311 1934.651, 1781.805 1934.635, 1781.841 1933.418, 1784.598 1929.380, 1793.746 1927.452, 1798.115 1923.414, 1807.264 1922.104, 1810.231 1916.206, 1818.307 1910.309, 1826.383 1907.296, 1830.509 1904.745, 1832.174 1898.546, 1836.221 1897.873, 1836.661 1897.747, 1836.743 1895.415, 1838.266 1892.367, 1840.256 1895.271, 1838.461 1897.950, 1836.806 1898.103, 1836.712 1898.908, 1836.214 1906.584, 1831.472 1904.745, 1832.174 1897.997, 1834.750 1897.043, 1835.114 1893.908, 1836.311 1891.292, 1837.310 1896.449, 1836.857 1897.747, 1836.743 1897.909, 1836.729 1898.103, 1836.712 1905.151, 1836.093 1898.908, 1836.214 1898.546, 1836.221 1897.646, 1836.239 1896.893, 1836.253 1893.908, 1836.311 1889.309, 1836.400 1880.621, 1832.304 1873.385, 1828.894 1881.820, 1834.266 1886.071, 1836.973 1880.621, 1832.304 1873.027, 1825.798 1869.378, 1822.673 1863.300, 1815.026 1857.258, 1807.058 1851.216, 1799.089 1850.333, 1797.925 1846.647, 1793.063 1852.369, 1801.264 1854.509, 1804.330 1850.333, 1797.925 1844.871, 1789.548 1839.410, 1781.171 1837.528, 1778.284 1837.051, 1777.583 1831.425, 1769.316 1825.800, 1761.048 1825.349, 1760.385 1819.928, 1751.982 1814.508, 1743.578 1809.731, 1736.172 1804.047, 1727.944 1798.363, 1719.717 1793.970, 1713.358 1788.237, 1705.165 1782.503, 1696.972 1780.541, 1694.168 1774.572, 1686.145 1768.603, 1678.122 1762.634, 1670.099 1760.861, 1667.717 1754.623, 1659.901 1748.385, 1652.085 1742.146, 1644.270 1736.543, 1637.249 1730.089, 1629.611 1723.635, 1621.972 1717.181, 1614.334 1710.727, 1606.695 1707.331, 1602.676 1700.663, 1595.224 1697.233, 1591.391 1690.565, 1583.938 1689.299, 1582.524 1689.064, 1582.261 1682.396, 1574.809 1675.728, 1567.356 1674.578, 1566.070 1681.161, 1573.597 1687.745, 1581.124 1693.515, 1587.721 1693.781, 1588.026 1700.365, 1595.553 1706.949, 1603.080 1713.533, 1610.606 1716.129, 1613.575 1709.645, 1605.962 1703.160, 1598.349 1697.233, 1591.391 1690.749, 1583.778 1684.264, 1576.165 1680.328, 1571.543 " />
            <path fill="none" stroke-width="3.0" stroke-linecap="butt" stroke-opacity="1.0" stroke="#61DAFB" stroke-linejoin="round" d=" M 1625.334, 482.015 1633.201, 480.653 1643.055, 478.946 1652.908, 477.239 1658.680, 476.239 1660.372, 475.946 1652.099, 477.049 1658.680, 476.239 1668.605, 475.019 1678.530, 473.798 1683.247, 473.218 1687.368, 472.711 1679.310, 473.508 1683.247, 473.218 1693.220, 472.484 1703.193, 471.750 1704.320, 471.667 1708.582, 471.354 1714.698, 470.903 1708.099, 471.365 1706.995, 471.443 1699.804, 471.770 1693.266, 471.938 1703.263, 471.693 1704.320, 471.667 1714.317, 471.423 1724.314, 471.178 1728.630, 471.073 1722.874, 471.135 1718.055, 471.144 1714.259, 471.215 1708.582, 471.354 1708.099, 471.365 1698.102, 471.610 1688.105, 471.854 1678.923, 472.079 1670.726, 472.680 1660.753, 473.411 1650.780, 474.142 1643.551, 474.672 1633.625, 475.886 1623.699, 477.101 1613.773, 478.315 1608.228, 478.994 " />
            <path fill="none" stroke-width="3.0" stroke-linecap="butt" stroke-opacity="1.0" stroke="#61DAFB" stroke-linejoin="round" d=" M 2735.379, 699.699 2728.449, 694.830 2734.969, 699.425 2743.144, 705.185 2751.318, 710.946 2756.109, 714.322 2757.516, 715.313 2750.887, 710.244 2756.109, 714.322 2763.990, 720.477 2771.871, 726.632 2775.623, 729.562 2778.892, 732.115 2772.631, 726.981 2775.623, 729.562 2783.194, 736.095 2790.765, 742.628 2791.615, 743.362 2794.849, 746.152 2799.496, 750.163 2794.502, 745.822 2793.668, 745.097 2788.352, 740.244 2783.610, 735.740 2790.852, 742.635 2791.615, 743.362 2798.857, 750.258 2806.099, 757.154 2809.228, 760.134 2805.113, 756.108 2801.700, 752.707 2798.966, 750.073 2794.849, 746.152 2794.502, 745.822 2787.260, 738.926 2780.018, 732.030 2773.368, 725.697 2767.146, 720.325 2759.577, 713.790 2752.008, 707.255 2746.522, 702.519 2738.645, 696.359 2730.767, 690.198 2722.890, 684.039 2718.490, 680.598 " />
            <path fill="none" stroke-width="3.0" stroke-linecap="butt" stroke-opacity="1.0" stroke="#61DAFB" stroke-linejoin="round" d=" M 2329.249, 1996.267 2329.856, 1996.310 2339.831, 1997.020 2343.156, 1997.257 2353.130, 1997.967 2363.105, 1998.677 2373.080, 1999.387 2383.055, 2000.097 2386.490, 2000.341 2387.795, 2000.410 2397.781, 2000.937 2404.886, 2001.312 2409.675, 2001.564 2414.690, 2001.829 2417.358, 2001.969 2418.184, 2002.013 2420.617, 2002.141 2421.013, 2002.162 2430.999, 2002.689 2440.985, 2003.215 2446.204, 2003.491 2436.218, 2002.963 2426.232, 2002.435 2420.900, 2002.154 2420.521, 2002.134 2418.070, 2002.004 2417.186, 2001.957 2414.520, 2001.817 2409.286, 2001.540 2404.544, 2001.289 2394.558, 2000.762 2386.814, 2000.353 2387.795, 2000.410 2397.778, 2000.995 2407.760, 2001.581 2417.743, 2002.166 2421.799, 2002.404 2427.701, 2002.750 2428.065, 2002.772 2430.313, 2002.904 2433.314, 2003.080 2434.002, 2003.120 2443.985, 2003.705 2448.184, 2003.952 2438.203, 2003.333 2429.352, 2002.784 2427.332, 2002.659 2426.708, 2002.620 2423.506, 2002.422 2419.937, 2002.200 2409.957, 2001.582 2409.675, 2001.564 2409.286, 2001.540 2399.305, 2000.921 2389.324, 2000.302 2387.912, 2000.215 2397.891, 2000.859 2404.544, 2001.289 2404.886, 2001.312 2414.865, 2001.956 2421.799, 2002.404 2431.131, 2003.007 2433.346, 2003.150 2433.935, 2003.188 2440.200, 2003.593 2450.106, 2004.233 2440.130, 2003.544 2434.002, 2003.120 2431.992, 2002.981 2427.332, 2002.659 2426.240, 2002.583 2419.949, 2002.148 2417.358, 2001.969 2417.186, 2001.957 2407.209, 2001.268 2397.233, 2000.578 2389.225, 2000.024 2399.200, 2000.731 2409.176, 2001.438 2414.520, 2001.817 2414.690, 2001.829 2419.937, 2002.200 2427.701, 2002.750 2428.810, 2002.829 2433.346, 2003.150 2434.407, 2003.225 2444.382, 2003.932 2451.636, 2004.446 2441.664, 2003.702 2440.200, 2003.593 2433.314, 2003.080 2431.992, 2002.981 2429.352, 2002.784 2421.013, 2002.162 2420.900, 2002.154 2418.482, 2001.973 2408.510, 2001.229 2398.538, 2000.486 2390.298, 1999.871 2400.269, 2000.637 2410.239, 2001.403 2418.070, 2002.004 2418.184, 2002.013 2419.949, 2002.148 2423.506, 2002.422 2428.065, 2002.772 2428.810, 2002.829 2431.131, 2003.007 2441.101, 2003.773 2451.072, 2004.539 2452.634, 2004.659 2442.665, 2003.875 2434.407, 2003.225 2433.935, 2003.188 2430.313, 2002.904 2426.708, 2002.620 2426.240, 2002.583 2420.617, 2002.141 2420.521, 2002.134 2418.482, 2001.973 2408.513, 2001.189 2398.544, 2000.406 2390.954, 1999.809 2385.581, 1999.203 2385.116, 1999.151 2375.179, 1998.031 2366.467, 1997.050 2356.530, 1995.930 2346.593, 1994.810 2336.656, 1993.691 2328.567, 1992.779 2338.503, 1993.908 2348.439, 1995.037 2358.375, 1996.166 2368.311, 1997.295 2378.247, 1998.423 2384.265, 1999.107 2384.795, 1999.167 2391.089, 1999.882 2384.926, 1999.173 2384.419, 1999.115 2374.485, 1997.972 2366.467, 1997.050 2356.532, 1995.907 2346.598, 1994.764 2336.663, 1993.621 2328.511, 1992.683 2318.617, 1991.230 2308.723, 1989.777 2298.829, 1988.324 2288.935, 1986.871 2279.042, 1985.418 2269.147, 1983.965 2266.737, 1983.611 2256.894, 1981.847 2247.051, 1980.082 2237.208, 1978.318 2227.364, 1976.554 2217.521, 1974.790 2207.227, 1972.945 2197.450, 1970.847 2187.673, 1968.748 2177.895, 1966.650 2168.118, 1964.552 2158.340, 1962.454 2151.440, 1960.973 2141.752, 1958.494 2132.065, 1956.016 2122.377, 1953.537 2112.689, 1951.058 2103.001, 1948.579 2101.326, 1948.151 2100.827, 1948.023 2101.652, 1948.253 2101.326, 1948.151 2091.783, 1945.163 2082.240, 1942.175 2072.697, 1939.187 2063.153, 1936.199 2058.860, 1934.855 2058.159, 1934.636 2057.966, 1934.575 2058.195, 1934.651 2059.073, 1934.944 2058.860, 1934.855 2055.402, 1933.419 2046.167, 1929.582 2042.607, 1928.104 2033.373, 1924.267 2026.060, 1921.229 2035.280, 1925.102 2042.765, 1928.246 2051.985, 1932.118 2061.205, 1935.990 2061.689, 1936.194 2058.195, 1934.651 2058.159, 1934.636 2055.402, 1933.419 2046.254, 1929.380 2041.885, 1927.452 2032.737, 1923.414 2029.769, 1922.104 2021.693, 1916.207 2013.617, 1910.309 2009.491, 1907.296 2007.826, 1904.745 2003.779, 1898.547 2003.339, 1897.873 2003.257, 1897.747 2001.734, 1895.415 1999.745, 1892.367 2001.539, 1895.271 2003.194, 1897.950 2003.288, 1898.103 2003.786, 1898.909 2008.528, 1906.585 2007.826, 1904.745 2005.250, 1897.997 2004.886, 1897.043 2003.689, 1893.908 2002.691, 1891.292 2003.143, 1896.449 2003.257, 1897.747 2003.271, 1897.909 2003.288, 1898.103 2003.907, 1905.152 2003.786, 1898.909 2003.779, 1898.547 2003.761, 1897.646 2003.747, 1896.893 2003.689, 1893.908 2003.600, 1889.310 2007.696, 1880.621 2011.107, 1873.386 2005.734, 1881.820 2003.027, 1886.071 2007.696, 1880.621 2014.202, 1873.027 2017.328, 1869.378 2024.974, 1863.300 2032.942, 1857.258 2040.911, 1851.216 2042.076, 1850.333 2046.937, 1846.647 2038.736, 1852.370 2035.670, 1854.509 2042.076, 1850.333 2050.452, 1844.872 2058.829, 1839.410 2061.716, 1837.528 2062.417, 1837.051 2070.685, 1831.426 2078.952, 1825.800 2079.615, 1825.349 2088.018, 1819.928 2096.422, 1814.508 2103.828, 1809.731 2112.056, 1804.047 2120.283, 1798.363 2126.642, 1793.970 2134.835, 1788.237 2143.028, 1782.503 2145.832, 1780.541 2153.855, 1774.572 2161.878, 1768.603 2169.901, 1762.634 2172.283, 1760.861 2180.099, 1754.623 2187.915, 1748.385 2195.730, 1742.146 2202.751, 1736.543 2210.390, 1730.089 2218.028, 1723.635 2225.667, 1717.181 2233.305, 1710.727 2237.324, 1707.331 2244.777, 1700.663 2248.611, 1697.232 2256.063, 1690.564 2257.477, 1689.299 2257.740, 1689.064 2265.192, 1682.396 2272.644, 1675.728 2273.930, 1674.577 2266.403, 1681.161 2258.876, 1687.745 2252.279, 1693.515 2251.975, 1693.781 2244.448, 1700.365 2236.921, 1706.949 2229.394, 1713.532 2226.425, 1716.129 2234.038, 1709.645 2241.651, 1703.160 2248.611, 1697.232 2256.223, 1690.748 2263.836, 1684.264 2268.457, 1680.327 " />
            <path fill="none" stroke-width="3.0" stroke-linecap="butt" stroke-opacity="1.0" stroke="#61DAFB" stroke-linejoin="round" d=" M 2268.457, 1680.327 2273.845, 1675.412 2281.233, 1668.672 2288.621, 1661.933 2296.009, 1655.193 2303.396, 1648.454 2304.640, 1647.320 2304.736, 1647.231 2305.220, 1646.790 2308.877, 1643.454 2304.855, 1647.082 2304.337, 1647.549 2304.222, 1647.652 2296.795, 1654.350 2289.369, 1661.047 2281.943, 1667.744 2274.517, 1674.441 2267.090, 1681.138 2263.586, 1684.298 2263.312, 1684.546 " />
            <path fill="none" stroke-width="3.0" stroke-linecap="butt" stroke-opacity="1.0" stroke="#61DAFB" stroke-linejoin="round" d=" M 2263.312, 1684.546 2268.457, 1680.327 2263.770, 1684.148 2263.586, 1684.298 2257.740, 1689.064 2252.279, 1693.515 2244.528, 1699.833 2236.777, 1706.152 2229.026, 1712.470 2221.275, 1718.788 2215.935, 1723.142 2223.688, 1716.826 2231.441, 1710.510 2239.194, 1704.194 2246.947, 1697.878 2251.975, 1693.781 2257.477, 1689.299 2263.312, 1684.546 " />
            <path fill="none" stroke-width="3.0" stroke-linecap="butt" stroke-opacity="1.0" stroke="#61DAFB" stroke-linejoin="round" d=" M 3357.986, 1625.334 3359.347, 1633.195 3361.054, 1643.048 3362.761, 1652.901 3363.762, 1658.682 3364.055, 1660.371 3362.952, 1652.099 3363.762, 1658.682 3364.983, 1668.607 3366.203, 1678.532 3366.783, 1683.246 3367.290, 1687.367 3366.493, 1679.310 3366.783, 1683.246 3367.517, 1693.219 3368.251, 1703.192 3368.333, 1704.319 3368.647, 1708.579 3369.097, 1714.698 3368.635, 1708.099 3368.558, 1706.995 3368.231, 1699.804 3368.063, 1693.266 3368.308, 1703.263 3368.333, 1704.319 3368.578, 1714.316 3368.823, 1724.313 3368.928, 1728.629 3368.866, 1722.874 3368.857, 1718.055 3368.786, 1714.259 3368.647, 1708.579 3368.635, 1708.099 3368.391, 1698.102 3368.146, 1688.105 3367.922, 1678.923 3367.321, 1670.725 3366.590, 1660.752 3365.859, 1650.779 3365.329, 1643.550 3364.114, 1633.624 3362.900, 1623.698 3361.686, 1613.772 3361.007, 1608.228 " />
            <path fill="none" stroke-width="3.0" stroke-linecap="butt" stroke-opacity="1.0" stroke="#61DAFB" stroke-linejoin="round" d=" M 2155.454, 2263.312 2155.853, 2263.772 2162.405, 2271.327 2164.587, 2273.844 2171.138, 2281.399 2177.689, 2288.955 2184.240, 2296.510 2190.792, 2304.065 2193.049, 2306.668 2193.926, 2307.643 2200.615, 2315.077 2205.370, 2320.362 2208.577, 2323.926 2211.937, 2327.660 2213.725, 2329.646 2214.278, 2330.261 2215.907, 2332.072 2216.172, 2332.367 2222.861, 2339.800 2229.550, 2347.234 2233.046, 2351.119 2226.358, 2343.685 2219.669, 2336.251 2216.098, 2332.280 2215.844, 2331.998 2214.203, 2330.174 2213.610, 2329.515 2211.825, 2327.531 2208.318, 2323.633 2205.143, 2320.103 2198.455, 2312.669 2193.270, 2306.905 2193.926, 2307.643 2200.571, 2315.116 2207.216, 2322.589 2213.860, 2330.062 2216.557, 2333.094 2220.486, 2337.513 2220.728, 2337.785 2222.224, 2339.468 2224.222, 2341.714 2224.680, 2342.230 2231.325, 2349.703 2234.120, 2352.845 2227.500, 2345.350 2221.629, 2338.704 2220.291, 2337.188 2219.876, 2336.719 2217.752, 2334.314 2215.386, 2331.635 2208.766, 2324.140 2208.577, 2323.926 2208.318, 2323.633 2201.698, 2316.138 2195.078, 2308.642 2194.143, 2307.584 2200.744, 2315.096 2205.143, 2320.103 2205.370, 2320.362 2211.971, 2327.875 2216.557, 2333.094 2222.729, 2340.119 2224.194, 2341.786 2224.584, 2342.230 2228.727, 2346.946 2235.280, 2354.404 2228.713, 2346.862 2224.680, 2342.230 2223.356, 2340.708 2220.291, 2337.188 2219.571, 2336.361 2215.430, 2331.605 2213.725, 2329.646 2213.610, 2329.515 2207.044, 2321.974 2200.477, 2314.432 2195.207, 2308.378 2201.760, 2315.931 2208.314, 2323.484 2211.825, 2327.531 2211.937, 2327.660 2215.386, 2331.635 2220.486, 2337.513 2221.215, 2338.353 2224.194, 2341.786 2224.892, 2342.591 2231.446, 2350.144 2236.211, 2355.636 2229.686, 2348.058 2228.727, 2346.946 2224.222, 2341.714 2223.356, 2340.708 2221.629, 2338.704 2216.172, 2332.367 2216.098, 2332.280 2214.516, 2330.444 2207.991, 2322.866 2201.465, 2315.289 2196.073, 2309.028 2202.582, 2316.620 2209.091, 2324.212 2214.203, 2330.174 2214.278, 2330.261 2215.430, 2331.605 2217.752, 2334.314 2220.728, 2337.785 2221.215, 2338.353 2222.729, 2340.119 2229.238, 2347.711 2235.747, 2355.303 2236.767, 2356.492 2230.272, 2348.889 2224.892, 2342.591 2224.584, 2342.230 2222.224, 2339.468 2219.876, 2336.719 2219.571, 2336.361 2215.907, 2332.072 2215.844, 2331.998 2214.516, 2330.444 2208.021, 2322.840 2201.526, 2315.237 2196.582, 2309.448 2193.210, 2305.220 2192.918, 2304.854 2186.683, 2297.036 2181.212, 2290.175 2174.977, 2282.357 2168.742, 2274.539 2162.507, 2266.720 2157.438, 2260.363 2163.666, 2268.187 2169.893, 2276.011 2176.121, 2283.836 2182.349, 2291.660 2188.576, 2299.484 2192.347, 2304.221 2192.680, 2304.639 2196.625, 2309.595 2192.768, 2304.736 2192.451, 2304.336 2186.234, 2296.503 2181.212, 2290.175 2174.995, 2282.342 2168.779, 2274.509 2162.562, 2266.677 2157.466, 2260.255 2151.497, 2252.232 2145.529, 2244.209 2139.560, 2236.185 2133.592, 2228.162 2127.623, 2220.138 2121.655, 2212.115 2120.200, 2210.160 2114.488, 2201.952 2108.775, 2193.744 2103.062, 2185.537 2097.350, 2177.329 2091.637, 2169.121 2085.663, 2160.538 2080.233, 2152.141 2074.803, 2143.743 2069.373, 2135.346 2063.943, 2126.949 2058.513, 2118.552 2054.681, 2112.626 2049.583, 2104.022 2044.486, 2095.419 2039.388, 2086.816 2034.290, 2078.213 2029.193, 2069.610 2028.312, 2068.122 2028.049, 2067.679 2028.470, 2068.425 2028.312, 2068.122 2023.676, 2059.262 2019.041, 2050.401 2014.406, 2041.540 2009.770, 2032.679 2007.685, 2028.693 2007.344, 2028.042 2007.250, 2027.863 2007.358, 2028.078 2007.773, 2028.907 2007.685, 2028.693 2006.255, 2025.233 2002.438, 2015.990 2000.967, 2012.427 1997.149, 2003.184 1994.126, 1995.865 1997.908, 2005.123 2000.978, 2012.639 2004.759, 2021.896 2008.540, 2031.154 2008.739, 2031.640 2007.358, 2028.078 2007.344, 2028.042 2006.255, 2025.233 2002.642, 2015.908 2000.917, 2011.456 1997.303, 2002.131 1996.131, 1999.106 1994.590, 1989.226 1993.050, 1979.345 1992.263, 1974.296 1992.889, 1971.316 1994.411, 1964.071 1994.576, 1963.283 1994.607, 1963.136 1995.179, 1960.411 1995.928, 1956.848 1995.143, 1960.171 1994.418, 1963.236 1994.377, 1963.410 1994.160, 1964.332 1992.085, 1973.113 1992.889, 1971.316 1995.840, 1964.722 1996.256, 1963.791 1997.627, 1960.728 1998.771, 1958.172 1995.444, 1962.138 1994.607, 1963.136 1994.502, 1963.261 1994.377, 1963.410 1989.830, 1968.832 1994.160, 1964.332 1994.411, 1964.071 1995.035, 1963.422 1995.557, 1962.879 1997.627, 1960.728 2000.816, 1957.413 2009.855, 1954.165 2017.383, 1951.461 2007.621, 1953.626 2002.701, 1954.718 2009.855, 1954.165 2019.826, 1953.396 2024.616, 1953.026 2034.321, 1954.135 2044.228, 1955.497 2054.134, 1956.859 2055.582, 1957.058 2061.627, 1957.889 2051.781, 1956.137 2048.100, 1955.482 2055.582, 1957.058 2065.368, 1959.120 2075.153, 1961.182 2078.524, 1961.892 2079.358, 1962.050 2089.182, 1963.919 2099.006, 1965.787 2099.793, 1965.936 2109.568, 1968.046 2119.343, 1970.155 2127.958, 1972.014 2137.795, 1973.813 2147.632, 1975.611 2155.234, 1977.001 2165.082, 1978.741 2174.929, 1980.480 2178.300, 1981.075 2188.194, 1982.527 2198.088, 1983.980 2207.982, 1985.432 2210.920, 1985.863 2220.857, 1986.979 2230.795, 1988.094 2240.733, 1989.209 2249.659, 1990.211 2259.624, 1991.049 2269.589, 1991.886 2279.554, 1992.724 2289.519, 1993.562 2294.762, 1994.002 2304.747, 1994.557 2309.883, 1994.842 2319.867, 1995.397 2321.762, 1995.502 2322.114, 1995.521 2332.099, 1996.076 2342.083, 1996.631 2343.806, 1996.726 2333.829, 1996.059 2323.851, 1995.392 2315.106, 1994.808 2314.702, 1994.781 2304.724, 1994.114 2294.746, 1993.447 2284.768, 1992.780 2280.834, 1992.517 2290.802, 1993.315 2300.770, 1994.113 2309.883, 1994.842 2319.851, 1995.640 2329.819, 1996.438 2335.870, 1996.922 " />
            <path fill="none" stroke-width="3.0" stroke-linecap="butt" stroke-opacity="1.0" stroke="#61DAFB" stroke-linejoin="round" d=" M 2335.870, 1996.922 2343.156, 1997.257 2353.145, 1997.715 2363.135, 1998.173 2373.124, 1998.632 2383.114, 1999.090 2384.795, 1999.167 2384.926, 1999.173 2385.581, 1999.203 2390.525, 1999.430 2385.116, 1999.151 2384.419, 1999.115 2384.265, 1999.107 2374.278, 1998.591 2364.291, 1998.076 2354.305, 1997.560 2344.318, 1997.045 2334.331, 1996.529 2329.619, 1996.286 2329.249, 1996.267 " />
            <path fill="none" stroke-width="3.0" stroke-linecap="butt" stroke-opacity="1.0" stroke="#61DAFB" stroke-linejoin="round" d=" M 2329.249, 1996.267 2335.870, 1996.922 2329.856, 1996.310 2329.619, 1996.286 2322.114, 1995.521 2315.106, 1994.808 2305.157, 1993.795 2295.209, 1992.782 2285.260, 1991.769 2275.312, 1990.756 2268.458, 1990.058 2278.406, 1991.074 2288.354, 1992.090 2298.302, 1993.106 2308.250, 1994.122 2314.702, 1994.781 2321.762, 1995.502 2329.249, 1996.267 " />
            <path fill="none" stroke-width="3.0" stroke-linecap="butt" stroke-opacity="1.0" stroke="#61DAFB" stroke-linejoin="round" d=" M 3140.301, 2735.379 3145.169, 2728.449 3140.574, 2734.970 3134.814, 2743.144 3129.053, 2751.318 3125.678, 2756.107 3124.686, 2757.516 3129.756, 2750.887 3125.678, 2756.107 3119.523, 2763.989 3113.368, 2771.870 3110.437, 2775.623 3107.884, 2778.892 3113.019, 2772.631 3110.437, 2775.623 3103.904, 2783.194 3097.371, 2790.765 3096.636, 2791.616 3093.845, 2794.851 3089.837, 2799.496 3094.176, 2794.504 3094.902, 2793.668 3099.756, 2788.352 3104.260, 2783.610 3097.364, 2790.852 3096.636, 2791.616 3089.740, 2798.858 3082.844, 2806.100 3079.866, 2809.227 3083.892, 2805.113 3087.293, 2801.699 3089.927, 2798.966 3093.845, 2794.851 3094.176, 2794.504 3101.072, 2787.262 3107.968, 2780.020 3114.302, 2773.368 3119.674, 2767.146 3126.209, 2759.577 3132.745, 2752.008 3137.481, 2746.522 3143.641, 2738.645 3149.801, 2730.767 3155.961, 2722.890 3159.402, 2718.490 " />
            <path fill="none" stroke-width="3.0" stroke-linecap="butt" stroke-opacity="1.0" stroke="#61DAFB" stroke-linejoin="round" d=" M 1843.734, 2329.249 1843.690, 2329.856 1842.980, 2339.831 1842.744, 2343.156 1842.034, 2353.130 1841.323, 2363.105 1840.613, 2373.080 1839.903, 2383.055 1839.659, 2386.490 1839.590, 2387.794 1839.063, 2397.780 1838.689, 2404.886 1838.436, 2409.675 1838.172, 2414.691 1838.031, 2417.359 1837.987, 2418.184 1837.859, 2420.618 1837.838, 2421.013 1837.311, 2430.999 1836.785, 2440.985 1836.510, 2446.204 1837.037, 2436.218 1837.565, 2426.232 1837.846, 2420.900 1837.867, 2420.521 1837.996, 2418.071 1838.043, 2417.187 1838.184, 2414.521 1838.460, 2409.286 1838.711, 2404.545 1839.238, 2394.558 1839.647, 2386.814 1839.590, 2387.794 1839.005, 2397.777 1838.419, 2407.760 1837.834, 2417.742 1837.596, 2421.800 1837.250, 2427.702 1837.228, 2428.065 1837.097, 2430.313 1836.921, 2433.314 1836.880, 2434.002 1836.295, 2443.985 1836.049, 2448.184 1836.667, 2438.203 1837.216, 2429.352 1837.341, 2427.333 1837.380, 2426.708 1837.578, 2423.506 1837.800, 2419.938 1838.419, 2409.958 1838.436, 2409.675 1838.460, 2409.286 1839.079, 2399.306 1839.698, 2389.325 1839.785, 2387.912 1839.141, 2397.891 1838.711, 2404.545 1838.689, 2404.886 1838.044, 2414.865 1837.596, 2421.800 1836.993, 2431.131 1836.850, 2433.347 1836.812, 2433.935 1836.407, 2440.200 1835.767, 2450.106 1836.457, 2440.130 1836.880, 2434.002 1837.019, 2431.991 1837.341, 2427.333 1837.417, 2426.240 1837.852, 2419.948 1838.031, 2417.359 1838.043, 2417.187 1838.732, 2407.210 1839.422, 2397.234 1839.976, 2389.226 1839.269, 2399.201 1838.562, 2409.176 1838.184, 2414.521 1838.172, 2414.691 1837.800, 2419.938 1837.250, 2427.702 1837.171, 2428.809 1836.850, 2433.347 1836.775, 2434.407 1836.068, 2444.382 1835.554, 2451.636 1836.298, 2441.664 1836.407, 2440.200 1836.921, 2433.314 1837.019, 2431.991 1837.216, 2429.352 1837.838, 2421.013 1837.846, 2420.900 1838.027, 2418.481 1838.771, 2408.509 1839.515, 2398.537 1840.129, 2390.298 1839.363, 2400.269 1838.597, 2410.239 1837.996, 2418.071 1837.987, 2418.184 1837.852, 2419.948 1837.578, 2423.506 1837.228, 2428.065 1837.171, 2428.809 1836.993, 2431.131 1836.227, 2441.101 1835.461, 2451.072 1835.341, 2452.634 1836.125, 2442.665 1836.775, 2434.407 1836.812, 2433.935 1837.097, 2430.313 1837.380, 2426.708 1837.417, 2426.240 1837.859, 2420.618 1837.867, 2420.521 1838.027, 2418.481 1838.811, 2408.512 1839.595, 2398.543 1840.191, 2390.954 1840.797, 2385.581 1840.849, 2385.116 1841.969, 2375.179 1842.950, 2366.467 1844.070, 2356.530 1845.190, 2346.593 1846.309, 2336.656 1847.221, 2328.567 1846.092, 2338.503 1844.963, 2348.439 1843.834, 2358.375 1842.706, 2368.311 1841.577, 2378.248 1840.893, 2384.265 1840.833, 2384.795 1840.118, 2391.089 1840.827, 2384.926 1840.885, 2384.419 1842.028, 2374.485 1842.950, 2366.467 1844.093, 2356.532 1845.236, 2346.598 1846.379, 2336.664 1847.317, 2328.511 1848.770, 2318.617 1850.223, 2308.723 1851.676, 2298.829 1853.129, 2288.935 1854.582, 2279.042 1856.035, 2269.148 1856.389, 2266.737 1858.153, 2256.894 1859.918, 2247.051 1861.682, 2237.208 1863.446, 2227.364 1865.210, 2217.521 1867.055, 2207.227 1869.154, 2197.450 1871.252, 2187.673 1873.350, 2177.895 1875.448, 2168.118 1877.546, 2158.340 1879.027, 2151.441 1881.506, 2141.753 1883.984, 2132.065 1886.463, 2122.377 1888.942, 2112.689 1891.421, 2103.001 1891.850, 2101.326 1891.977, 2100.827 1891.748, 2101.652 1891.850, 2101.326 1894.837, 2091.783 1897.825, 2082.240 1900.813, 2072.697 1903.801, 2063.153 1905.145, 2058.860 1905.364, 2058.160 1905.425, 2057.966 1905.349, 2058.195 1905.056, 2059.074 1905.145, 2058.860 1906.581, 2055.402 1910.418, 2046.167 1911.896, 2042.608 1915.733, 2033.373 1918.771, 2026.060 1914.898, 2035.280 1911.754, 2042.765 1907.882, 2051.985 1904.010, 2061.205 1903.807, 2061.689 1905.349, 2058.195 1905.364, 2058.160 1906.581, 2055.402 1910.620, 2046.254 1912.548, 2041.886 1916.586, 2032.737 1917.896, 2029.769 1923.794, 2021.693 1929.691, 2013.617 1932.704, 2009.491 1935.255, 2007.826 1941.454, 2003.779 1942.127, 2003.339 1942.253, 2003.257 1944.585, 2001.735 1947.633, 1999.745 1944.729, 2001.539 1942.050, 2003.194 1941.897, 2003.288 1941.091, 2003.786 1933.416, 2008.528 1935.255, 2007.826 1942.004, 2005.250 1942.957, 2004.886 1946.092, 2003.689 1948.708, 2002.691 1943.551, 2003.143 1942.253, 2003.257 1942.091, 2003.271 1941.897, 2003.288 1934.848, 2003.907 1941.091, 2003.786 1941.454, 2003.779 1942.354, 2003.762 1943.107, 2003.747 1946.092, 2003.689 1950.690, 2003.600 1959.379, 2007.696 1966.615, 2011.107 1958.180, 2005.735 1953.929, 2003.027 1959.379, 2007.696 1966.973, 2014.202 1970.622, 2017.328 1976.700, 2024.974 1982.742, 2032.943 1988.784, 2040.911 1989.667, 2042.076 1993.353, 2046.937 1987.631, 2038.736 1985.491, 2035.670 1989.667, 2042.076 1995.128, 2050.452 2000.590, 2058.829 2002.472, 2061.716 2002.949, 2062.417 2008.575, 2070.685 2014.200, 2078.953 2014.651, 2079.615 2020.072, 2088.019 2025.492, 2096.422 2030.269, 2103.828 2035.953, 2112.056 2041.637, 2120.284 2046.030, 2126.642 2051.763, 2134.835 2057.497, 2143.028 2059.459, 2145.832 2065.428, 2153.855 2071.397, 2161.878 2077.366, 2169.901 2079.139, 2172.284 2085.377, 2180.099 2091.615, 2187.915 2097.854, 2195.731 2103.457, 2202.751 2109.911, 2210.390 2116.365, 2218.028 2122.819, 2225.667 2129.273, 2233.305 2132.669, 2237.324 2139.337, 2244.777 2142.767, 2248.609 2149.435, 2256.062 2150.700, 2257.476 2150.936, 2257.739 2157.604, 2265.191 2164.272, 2272.644 2165.423, 2273.930 2158.839, 2266.403 2152.255, 2258.876 2146.485, 2252.279 2146.218, 2251.974 2139.634, 2244.447 2133.050, 2236.920 2126.467, 2229.393 2123.871, 2226.426 2130.355, 2234.038 2136.840, 2241.651 2142.767, 2248.609 2149.251, 2256.222 2155.736, 2263.835 2159.673, 2268.457 " />
            <path fill="none" stroke-width="3.0" stroke-linecap="butt" stroke-opacity="1.0" stroke="#61DAFB" stroke-linejoin="round" d=" M 2159.673, 2268.457 2164.587, 2273.844 2171.326, 2281.232 2178.066, 2288.620 2184.805, 2296.007 2191.545, 2303.395 2192.680, 2304.639 2192.768, 2304.736 2193.210, 2305.220 2196.546, 2308.877 2192.918, 2304.854 2192.451, 2304.336 2192.347, 2304.221 2185.650, 2296.795 2178.953, 2289.368 2172.256, 2281.942 2165.559, 2274.516 2158.862, 2267.090 2155.703, 2263.587 2155.454, 2263.312 " />
            <path fill="none" stroke-width="3.0" stroke-linecap="butt" stroke-opacity="1.0" stroke="#61DAFB" stroke-linejoin="round" d=" M 2155.454, 2263.312 2159.673, 2268.457 2155.853, 2263.772 2155.703, 2263.587 2150.936, 2257.739 2146.485, 2252.279 2140.167, 2244.528 2133.848, 2236.777 2127.530, 2229.026 2121.211, 2221.275 2116.858, 2215.935 2123.174, 2223.688 2129.490, 2231.441 2135.806, 2239.194 2142.123, 2246.947 2146.218, 2251.974 2150.700, 2257.476 2155.454, 2263.312 " />
            <path fill="none" stroke-width="3.0" stroke-linecap="butt" stroke-opacity="1.0" stroke="#61DAFB" stroke-linejoin="round" d=" M 1576.689, 2155.454 1576.229, 2155.853 1568.674, 2162.404 1566.155, 2164.588 1558.600, 2171.139 1551.044, 2177.690 1543.489, 2184.241 1535.934, 2190.792 1533.332, 2193.049 1532.357, 2193.926 1524.923, 2200.615 1519.634, 2205.374 1516.070, 2208.581 1512.339, 2211.938 1510.352, 2213.726 1509.738, 2214.278 1507.927, 2215.908 1507.632, 2216.173 1500.199, 2222.862 1492.765, 2229.551 1488.881, 2233.046 1496.315, 2226.358 1503.750, 2219.670 1507.719, 2216.099 1508.001, 2215.845 1509.825, 2214.204 1510.483, 2213.612 1512.469, 2211.826 1516.363, 2208.322 1519.893, 2205.146 1527.327, 2198.458 1533.095, 2193.270 1532.357, 2193.926 1524.884, 2200.571 1517.411, 2207.216 1509.938, 2213.861 1506.902, 2216.561 1502.488, 2220.486 1502.216, 2220.728 1500.533, 2222.224 1498.286, 2224.222 1497.770, 2224.681 1490.297, 2231.326 1487.155, 2234.120 1494.650, 2227.500 1501.297, 2221.629 1502.813, 2220.290 1503.283, 2219.875 1505.687, 2217.751 1508.368, 2215.384 1515.863, 2208.764 1516.070, 2208.581 1516.363, 2208.322 1523.858, 2201.702 1531.353, 2195.082 1532.416, 2194.143 1524.904, 2200.744 1519.893, 2205.146 1519.634, 2205.374 1512.122, 2211.974 1506.902, 2216.561 1499.883, 2222.728 1498.217, 2224.192 1497.772, 2224.583 1493.056, 2228.726 1485.597, 2235.280 1493.139, 2228.713 1497.770, 2224.681 1499.293, 2223.355 1502.813, 2220.290 1503.641, 2219.570 1508.396, 2215.429 1510.352, 2213.726 1510.483, 2213.612 1518.025, 2207.045 1525.567, 2200.479 1531.622, 2195.207 1524.069, 2201.760 1516.516, 2208.314 1512.469, 2211.826 1512.339, 2211.938 1508.368, 2215.384 1502.488, 2220.486 1501.648, 2221.214 1498.217, 2224.192 1497.410, 2224.891 1489.857, 2231.445 1484.364, 2236.211 1491.942, 2229.686 1493.056, 2228.726 1498.286, 2224.222 1499.293, 2223.355 1501.297, 2221.629 1507.632, 2216.173 1507.719, 2216.099 1509.558, 2214.515 1517.135, 2207.989 1524.713, 2201.464 1530.972, 2196.074 1523.380, 2202.583 1515.788, 2209.091 1509.825, 2214.204 1509.738, 2214.278 1508.396, 2215.429 1505.687, 2217.751 1502.216, 2220.728 1501.648, 2221.214 1499.883, 2222.728 1492.291, 2229.236 1484.699, 2235.745 1483.508, 2236.767 1491.112, 2230.272 1497.410, 2224.891 1497.772, 2224.583 1500.533, 2222.224 1503.283, 2219.875 1503.641, 2219.570 1507.927, 2215.908 1508.001, 2215.845 1509.558, 2214.515 1517.162, 2208.020 1524.765, 2201.525 1530.552, 2196.582 1534.780, 2193.210 1535.146, 2192.918 1542.964, 2186.683 1549.818, 2181.218 1557.636, 2174.983 1565.454, 2168.748 1573.272, 2162.513 1579.637, 2157.438 1571.813, 2163.666 1563.989, 2169.893 1556.165, 2176.121 1548.341, 2182.349 1540.517, 2188.576 1535.779, 2192.348 1535.361, 2192.680 1530.405, 2196.625 1535.264, 2192.769 1535.664, 2192.451 1543.496, 2186.235 1549.818, 2181.218 1557.650, 2175.001 1565.483, 2168.785 1573.316, 2162.568 1579.745, 2157.466 1587.768, 2151.498 1595.792, 2145.529 1603.815, 2139.560 1611.839, 2133.592 1619.862, 2127.623 1627.885, 2121.655 1629.840, 2120.200 1638.048, 2114.488 1646.256, 2108.775 1654.463, 2103.062 1662.671, 2097.350 1670.879, 2091.637 1679.462, 2085.663 1687.859, 2080.233 1696.257, 2074.803 1704.654, 2069.373 1713.051, 2063.943 1721.449, 2058.513 1727.375, 2054.681 1735.978, 2049.583 1744.581, 2044.486 1753.184, 2039.388 1761.787, 2034.291 1770.390, 2029.193 1771.878, 2028.312 1772.321, 2028.049 1771.575, 2028.470 1771.878, 2028.312 1780.738, 2023.677 1789.599, 2019.041 1798.460, 2014.406 1807.321, 2009.770 1811.307, 2007.685 1811.958, 2007.345 1812.138, 2007.250 1811.922, 2007.359 1811.093, 2007.773 1811.307, 2007.685 1814.768, 2006.256 1824.010, 2002.438 1827.573, 2000.967 1836.816, 1997.149 1844.135, 1994.126 1834.878, 1997.908 1827.361, 2000.978 1818.104, 2004.759 1808.846, 2008.540 1808.360, 2008.739 1811.922, 2007.359 1811.958, 2007.345 1814.768, 2006.256 1824.092, 2002.642 1828.544, 2000.917 1837.869, 1997.303 1840.894, 1996.131 1850.775, 1994.591 1860.655, 1993.050 1865.704, 1992.263 1868.684, 1992.889 1875.929, 1994.411 1876.717, 1994.576 1876.864, 1994.607 1879.589, 1995.180 1883.152, 1995.928 1879.829, 1995.143 1876.764, 1994.419 1876.590, 1994.377 1875.668, 1994.160 1866.887, 1992.085 1868.684, 1992.889 1875.278, 1995.840 1876.209, 1996.256 1879.272, 1997.627 1881.828, 1998.771 1877.862, 1995.444 1876.864, 1994.607 1876.739, 1994.503 1876.590, 1994.377 1871.168, 1989.831 1875.668, 1994.160 1875.929, 1994.411 1876.578, 1995.035 1877.121, 1995.558 1879.272, 1997.627 1882.587, 2000.816 1885.835, 2009.855 1888.539, 2017.384 1886.374, 2007.621 1885.283, 2002.701 1885.835, 2009.855 1886.604, 2019.826 1886.974, 2024.616 1885.865, 2034.321 1884.503, 2044.228 1883.141, 2054.135 1882.942, 2055.582 1882.111, 2061.627 1883.863, 2051.781 1884.518, 2048.100 1882.942, 2055.582 1880.880, 2065.368 1878.819, 2075.153 1878.108, 2078.525 1877.950, 2079.358 1876.082, 2089.182 1874.213, 2099.006 1874.064, 2099.793 1871.954, 2109.568 1869.845, 2119.344 1867.986, 2127.959 1866.187, 2137.796 1864.389, 2147.633 1862.999, 2155.234 1861.259, 2165.082 1859.520, 2174.930 1858.925, 2178.300 1857.473, 2188.194 1856.020, 2198.088 1854.568, 2207.982 1854.137, 2210.920 1853.021, 2220.858 1851.906, 2230.795 1850.791, 2240.733 1849.789, 2249.659 1848.951, 2259.624 1848.114, 2269.589 1847.276, 2279.554 1846.439, 2289.519 1845.998, 2294.762 1845.443, 2304.747 1845.158, 2309.883 1844.603, 2319.867 1844.498, 2321.762 1844.479, 2322.114 1843.924, 2332.099 1843.370, 2342.083 1843.274, 2343.807 1843.941, 2333.829 1844.608, 2323.851 1845.192, 2315.106 1845.219, 2314.702 1845.886, 2304.724 1846.553, 2294.746 1847.220, 2284.768 1847.483, 2280.834 1846.685, 2290.802 1845.887, 2300.770 1845.158, 2309.883 1844.360, 2319.851 1843.562, 2329.819 1843.078, 2335.870 " />
            <path fill="none" stroke-width="3.0" stroke-linecap="butt" stroke-opacity="1.0" stroke="#61DAFB" stroke-linejoin="round" d=" M 1843.078, 2335.870 1842.744, 2343.156 1842.285, 2353.145 1841.827, 2363.134 1841.368, 2373.124 1840.910, 2383.113 1840.833, 2384.795 1840.827, 2384.926 1840.797, 2385.581 1840.570, 2390.525 1840.849, 2385.116 1840.885, 2384.419 1840.893, 2384.265 1841.409, 2374.278 1841.924, 2364.291 1842.440, 2354.305 1842.956, 2344.318 1843.471, 2334.331 1843.714, 2329.620 1843.734, 2329.249 " />
            <path fill="none" stroke-width="3.0" stroke-linecap="butt" stroke-opacity="1.0" stroke="#61DAFB" stroke-linejoin="round" d=" M 1843.734, 2329.249 1843.078, 2335.870 1843.690, 2329.856 1843.714, 2329.620 1844.479, 2322.114 1845.192, 2315.106 1846.205, 2305.157 1847.218, 2295.209 1848.231, 2285.260 1849.244, 2275.312 1849.942, 2268.458 1848.926, 2278.406 1847.910, 2288.354 1846.894, 2298.302 1845.878, 2308.251 1845.219, 2314.702 1844.498, 2321.762 1843.734, 2329.249 " />
            <path fill="none" stroke-width="3.0" stroke-linecap="butt" stroke-opacity="1.0" stroke="#61DAFB" stroke-linejoin="round" d=" M 2206.323, 3359.443 2214.666, 3357.985 2206.803, 3359.347 2196.950, 3361.054 2187.096, 3362.761 2181.322, 3363.761 2179.629, 3364.054 2187.901, 3362.952 2181.322, 3363.761 2171.396, 3364.982 2161.471, 3366.202 2156.750, 3366.783 2152.633, 3367.289 2160.690, 3366.493 2156.750, 3366.783 2146.778, 3367.517 2136.804, 3368.251 2135.683, 3368.333 2131.420, 3368.647 2125.302, 3369.097 2131.901, 3368.635 2133.005, 3368.558 2140.196, 3368.231 2146.734, 3368.063 2136.737, 3368.307 2135.683, 3368.333 2125.686, 3368.578 2115.689, 3368.822 2111.371, 3368.928 2117.126, 3368.865 2121.945, 3368.856 2125.741, 3368.786 2131.420, 3368.647 2131.901, 3368.635 2141.898, 3368.390 2151.895, 3368.146 2161.077, 3367.921 2169.274, 3367.320 2179.248, 3366.589 2189.221, 3365.858 2196.450, 3365.328 2206.376, 3364.114 2216.302, 3362.900 2226.228, 3361.685 2231.772, 3361.007 " />
            <path fill="none" stroke-width="3.0" stroke-linecap="butt" stroke-opacity="1.0" stroke="#61DAFB" stroke-linejoin="round" d=" M 1104.621, 3140.301 1111.551, 3145.169 1105.030, 3140.574 1096.856, 3134.813 1088.682, 3129.053 1083.891, 3125.677 1082.485, 3124.686 1089.114, 3129.755 1083.891, 3125.677 1076.010, 3119.522 1068.129, 3113.367 1064.377, 3110.437 1061.108, 3107.884 1067.369, 3113.019 1064.377, 3110.437 1056.807, 3103.904 1049.236, 3097.371 1048.384, 3096.636 1045.149, 3093.844 1040.504, 3089.837 1045.495, 3094.175 1046.332, 3094.902 1051.648, 3099.755 1056.390, 3104.260 1049.148, 3097.364 1048.384, 3096.636 1041.142, 3089.740 1033.900, 3082.844 1030.773, 3079.866 1034.887, 3083.892 1038.301, 3087.293 1041.035, 3089.927 1045.149, 3093.844 1045.495, 3094.175 1052.737, 3101.071 1059.979, 3107.967 1066.632, 3114.302 1072.854, 3119.674 1080.423, 3126.209 1087.992, 3132.744 1093.478, 3137.481 1101.356, 3143.641 1109.233, 3149.801 1117.110, 3155.961 1121.511, 3159.402 1129.678, 3165.172 1137.845, 3170.943 1146.012, 3176.713 1148.681, 3178.599 1150.669, 3180.004 " />
            <path fill="none" stroke-width="3.0" stroke-linecap="butt" stroke-opacity="1.0" stroke="#61DAFB" stroke-linejoin="round" d=" M 1510.751, 1843.734 1510.144, 1843.690 1500.169, 1842.980 1496.845, 1842.744 1486.870, 1842.034 1476.895, 1841.324 1466.921, 1840.614 1456.946, 1839.904 1453.510, 1839.659 1452.204, 1839.590 1442.218, 1839.063 1435.114, 1838.689 1430.326, 1838.436 1425.310, 1838.172 1422.641, 1838.031 1421.816, 1837.987 1419.383, 1837.859 1418.987, 1837.838 1409.001, 1837.312 1399.015, 1836.785 1393.796, 1836.510 1403.782, 1837.037 1413.768, 1837.565 1419.100, 1837.847 1419.479, 1837.867 1421.930, 1837.996 1422.814, 1838.043 1425.480, 1838.184 1430.715, 1838.460 1435.457, 1838.711 1445.443, 1839.239 1453.186, 1839.648 1452.204, 1839.590 1442.221, 1839.005 1432.238, 1838.419 1422.256, 1837.834 1418.201, 1837.596 1412.299, 1837.250 1411.936, 1837.229 1409.687, 1837.097 1406.686, 1836.921 1405.998, 1836.880 1396.015, 1836.295 1391.816, 1836.049 1401.797, 1836.667 1410.649, 1837.216 1412.667, 1837.341 1413.291, 1837.380 1416.494, 1837.579 1420.062, 1837.800 1430.043, 1838.419 1430.326, 1838.436 1430.715, 1838.460 1440.696, 1839.079 1450.677, 1839.698 1452.088, 1839.786 1442.109, 1839.141 1435.457, 1838.711 1435.114, 1838.689 1425.135, 1838.044 1418.201, 1837.596 1408.870, 1836.993 1406.654, 1836.850 1406.065, 1836.812 1399.801, 1836.407 1389.894, 1835.767 1399.870, 1836.457 1405.998, 1836.880 1408.010, 1837.019 1412.667, 1837.341 1413.760, 1837.417 1420.052, 1837.852 1422.641, 1838.031 1422.814, 1838.043 1432.791, 1838.733 1442.767, 1839.422 1450.775, 1839.976 1440.800, 1839.269 1430.825, 1838.562 1425.480, 1838.184 1425.310, 1838.172 1420.062, 1837.800 1412.299, 1837.250 1411.191, 1837.171 1406.654, 1836.850 1405.592, 1836.775 1395.617, 1836.068 1388.364, 1835.554 1398.336, 1836.298 1399.801, 1836.407 1406.686, 1836.921 1408.010, 1837.019 1410.649, 1837.216 1418.987, 1837.838 1419.100, 1837.847 1421.516, 1838.027 1431.489, 1838.771 1441.461, 1839.515 1449.702, 1840.129 1439.732, 1839.363 1429.761, 1838.598 1421.930, 1837.996 1421.816, 1837.987 1420.052, 1837.852 1416.494, 1837.579 1411.936, 1837.229 1411.191, 1837.171 1408.870, 1836.993 1398.899, 1836.227 1388.928, 1835.462 1387.366, 1835.342 1397.335, 1836.125 1405.592, 1836.775 1406.065, 1836.812 1409.687, 1837.097 1413.291, 1837.380 1413.760, 1837.417 1419.383, 1837.859 1419.479, 1837.867 1421.516, 1838.027 1431.486, 1838.811 1441.455, 1839.595 1449.046, 1840.192 1454.419, 1840.797 1454.884, 1840.849 1464.821, 1841.969 1473.536, 1842.951 1483.473, 1844.070 1493.410, 1845.190 1503.347, 1846.310 1511.433, 1847.221 1501.497, 1846.092 1491.561, 1844.963 1481.625, 1843.834 1471.689, 1842.706 1461.753, 1841.577 1455.735, 1840.893 1455.205, 1840.833 1448.911, 1840.118 1455.074, 1840.827 1455.581, 1840.885 1465.515, 1842.028 1473.536, 1842.951 1483.470, 1844.094 1493.405, 1845.237 1503.339, 1846.380 1511.489, 1847.317 1521.383, 1848.770 1531.277, 1850.223 1541.171, 1851.676 1551.065, 1853.129 1560.959, 1854.582 1570.853, 1856.035 1573.263, 1856.389 1583.106, 1858.154 1592.949, 1859.918 1602.793, 1861.682 1612.636, 1863.446 1622.479, 1865.211 1632.773, 1867.056 1642.550, 1869.154 1652.328, 1871.252 1662.105, 1873.350 1671.882, 1875.448 1681.660, 1877.546 1688.560, 1879.027 1698.247, 1881.506 1707.935, 1883.985 1717.623, 1886.464 1727.311, 1888.942 1736.999, 1891.421 1738.674, 1891.850 1739.173, 1891.978 1738.348, 1891.748 1738.674, 1891.850 1748.217, 1894.838 1757.760, 1897.825 1767.303, 1900.813 1776.847, 1903.801 1781.140, 1905.145 1781.841, 1905.365 1782.034, 1905.425 1781.805, 1905.349 1780.927, 1905.057 1781.140, 1905.145 1784.597, 1906.582 1793.832, 1910.418 1797.393, 1911.897 1806.628, 1915.733 1813.940, 1918.771 1804.720, 1914.899 1797.235, 1911.755 1788.015, 1907.882 1778.796, 1904.010 1778.311, 1903.807 1781.805, 1905.349 1781.841, 1905.365 1784.597, 1906.582 1793.746, 1910.620 1798.115, 1912.548 1807.263, 1916.586 1810.231, 1917.896 1818.307, 1923.794 1826.383, 1929.691 1830.509, 1932.705 1832.174, 1935.255 1836.221, 1941.454 1836.661, 1942.128 1836.743, 1942.253 1838.265, 1944.585 1840.255, 1947.634 1838.461, 1944.729 1836.806, 1942.050 1836.712, 1941.897 1836.214, 1941.092 1831.472, 1933.416 1832.174, 1935.255 1834.750, 1942.004 1835.114, 1942.957 1836.311, 1946.092 1837.309, 1948.708 1836.857, 1943.551 1836.743, 1942.253 1836.729, 1942.091 1836.712, 1941.897 1836.093, 1934.849 1836.214, 1941.092 1836.221, 1941.454 1836.238, 1942.354 1836.253, 1943.107 1836.311, 1946.092 1836.400, 1950.691 1832.304, 1959.379 1828.893, 1966.615 1834.266, 1958.180 1836.973, 1953.929 1832.304, 1959.379 1825.798, 1966.973 1822.672, 1970.622 1815.026, 1976.700 1807.057, 1982.742 1799.089, 1988.784 1797.925, 1989.667 1793.063, 1993.354 1801.264, 1987.631 1804.330, 1985.491 1797.925, 1989.667 1789.548, 1995.129 1781.171, 2000.590 1778.284, 2002.472 1777.583, 2002.949 1769.315, 2008.575 1761.048, 2014.201 1760.385, 2014.651 1751.982, 2020.072 1743.578, 2025.492 1736.172, 2030.270 1727.944, 2035.953 1719.716, 2041.637 1713.358, 2046.030 1705.165, 2051.763 1696.972, 2057.497 1694.168, 2059.459 1686.145, 2065.428 1678.122, 2071.397 1670.099, 2077.367 1667.716, 2079.139 1659.901, 2085.377 1652.085, 2091.616 1644.269, 2097.854 1637.249, 2103.458 1629.610, 2109.911 1621.972, 2116.365 1614.333, 2122.819 1606.695, 2129.273 1602.676, 2132.669 1595.224, 2139.338 1591.390, 2142.767 1583.938, 2149.436 1582.524, 2150.701 1582.261, 2150.936 1574.809, 2157.604 1567.356, 2164.272 1566.070, 2165.423 1573.597, 2158.839 1581.124, 2152.255 1587.721, 2146.485 1588.026, 2146.218 1595.553, 2139.634 1603.080, 2133.051 1610.607, 2126.467 1613.575, 2123.871 1605.962, 2130.356 1598.349, 2136.840 1591.390, 2142.767 1583.777, 2149.252 1576.165, 2155.736 1571.543, 2159.673 " />
            <path fill="none" stroke-width="3.0" stroke-linecap="butt" stroke-opacity="1.0" stroke="#61DAFB" stroke-linejoin="round" d=" M 1571.543, 2159.673 1566.155, 2164.588 1558.767, 2171.328 1551.380, 2178.067 1543.992, 2184.807 1536.604, 2191.546 1535.361, 2192.680 1535.264, 2192.769 1534.780, 2193.210 1531.123, 2196.546 1535.146, 2192.918 1535.664, 2192.451 1535.779, 2192.348 1543.205, 2185.651 1550.631, 2178.953 1558.057, 2172.256 1565.484, 2165.559 1572.910, 2158.862 1576.413, 2155.703 1576.689, 2155.454 " />
            <path fill="none" stroke-width="3.0" stroke-linecap="butt" stroke-opacity="1.0" stroke="#61DAFB" stroke-linejoin="round" d=" M 1576.689, 2155.454 1571.543, 2159.673 1576.229, 2155.853 1576.413, 2155.703 1582.261, 2150.936 1587.721, 2146.485 1595.473, 2140.166 1603.224, 2133.848 1610.974, 2127.529 1618.725, 2121.211 1624.065, 2116.858 1616.312, 2123.174 1608.559, 2129.490 1600.806, 2135.807 1593.053, 2142.123 1588.026, 2146.218 1582.524, 2150.701 1576.689, 2155.454 " />
            <path fill="none" stroke-width="3.0" stroke-linecap="butt" stroke-opacity="1.0" stroke="#61DAFB" stroke-linejoin="round" d=" M 480.560, 2206.337 480.555, 2206.308 480.557, 2206.318 482.015, 2214.666 480.653, 2206.801 478.946, 2196.948 477.239, 2187.094 476.239, 2181.318 475.946, 2179.628 477.048, 2187.901 476.239, 2181.318 475.018, 2171.393 473.798, 2161.468 473.218, 2156.752 472.711, 2152.633 473.508, 2160.690 473.218, 2156.752 472.484, 2146.779 471.750, 2136.806 471.667, 2135.680 471.354, 2131.420 470.904, 2125.302 471.366, 2131.906 471.443, 2133.005 471.770, 2140.196 471.938, 2146.734 471.693, 2136.737 471.667, 2135.680 471.423, 2125.683 471.178, 2115.686 471.072, 2111.370 471.135, 2117.126 471.144, 2121.945 471.215, 2125.741 471.354, 2131.420 471.366, 2131.906 471.610, 2141.903 471.855, 2151.900 472.079, 2161.077 472.680, 2169.275 473.411, 2179.248 474.142, 2189.221 474.672, 2196.450 475.887, 2206.375 477.101, 2216.302 478.315, 2226.228 478.994, 2231.772 480.688, 2241.627 482.383, 2251.483 484.078, 2261.338 484.594, 2264.338 485.044, 2266.958 483.354, 2257.102 481.663, 2247.246 479.973, 2237.390 479.500, 2234.633 481.190, 2244.489 482.880, 2254.345 484.594, 2264.338 485.534, 2269.821 487.703, 2279.583 489.872, 2289.345 492.041, 2299.107 493.304, 2304.792 495.937, 2314.439 498.571, 2324.086 500.745, 2332.048 " />
            <path fill="none" stroke-width="3.0" stroke-linecap="butt" stroke-opacity="1.0" stroke="#61DAFB" stroke-linejoin="round" d=" M 1684.546, 1576.689 1684.147, 1576.229 1677.596, 1568.674 1675.413, 1566.156 1668.861, 1558.600 1662.310, 1551.045 1655.759, 1543.490 1649.208, 1535.934 1646.951, 1533.332 1646.076, 1532.359 1639.387, 1524.926 1634.628, 1519.637 1631.420, 1516.071 1628.062, 1512.340 1626.275, 1510.354 1625.723, 1509.740 1624.092, 1507.927 1623.829, 1507.634 1617.140, 1500.201 1610.451, 1492.767 1606.954, 1488.881 1613.643, 1496.315 1620.331, 1503.750 1623.903, 1507.720 1624.155, 1508.001 1625.798, 1509.827 1626.389, 1510.484 1628.175, 1512.469 1631.678, 1516.364 1634.855, 1519.895 1641.543, 1527.329 1646.730, 1533.095 1646.076, 1532.359 1639.431, 1524.886 1632.786, 1517.414 1626.141, 1509.941 1623.444, 1506.907 1619.516, 1502.490 1619.274, 1502.218 1617.777, 1500.534 1615.780, 1498.289 1615.322, 1497.773 1608.677, 1490.300 1605.880, 1487.155 1612.500, 1494.650 1618.374, 1501.300 1619.713, 1502.816 1620.125, 1503.283 1622.251, 1505.690 1624.617, 1508.369 1631.237, 1515.864 1631.420, 1516.071 1631.678, 1516.364 1638.298, 1523.859 1644.918, 1531.354 1645.857, 1532.417 1639.256, 1524.904 1634.855, 1519.895 1634.628, 1519.637 1628.028, 1512.125 1623.444, 1506.907 1617.273, 1499.883 1615.807, 1498.215 1615.416, 1497.770 1611.274, 1493.055 1604.720, 1485.597 1611.287, 1493.139 1615.322, 1497.773 1616.646, 1499.294 1619.713, 1502.816 1620.429, 1503.638 1624.573, 1508.399 1626.275, 1510.354 1626.389, 1510.484 1632.956, 1518.026 1639.522, 1525.568 1644.793, 1531.622 1638.240, 1524.069 1631.686, 1516.516 1628.175, 1512.469 1628.062, 1512.340 1624.617, 1508.369 1619.516, 1502.490 1618.789, 1501.652 1615.807, 1498.215 1615.108, 1497.409 1608.554, 1489.856 1603.789, 1484.365 1610.315, 1491.942 1611.274, 1493.055 1615.780, 1498.289 1616.646, 1499.294 1618.374, 1501.300 1623.829, 1507.634 1623.903, 1507.720 1625.476, 1509.548 1632.002, 1517.125 1638.527, 1524.703 1643.927, 1530.972 1637.418, 1523.380 1630.909, 1515.789 1625.798, 1509.827 1625.723, 1509.740 1624.573, 1508.399 1622.251, 1505.690 1619.274, 1502.218 1618.789, 1501.652 1617.273, 1499.883 1610.764, 1492.292 1604.255, 1484.700 1603.234, 1483.508 1609.729, 1491.112 1615.108, 1497.409 1615.416, 1497.770 1617.777, 1500.534 1620.125, 1503.283 1620.429, 1503.638 1624.092, 1507.927 1624.155, 1508.001 1625.476, 1509.548 1631.971, 1517.151 1638.466, 1524.755 1643.419, 1530.552 1646.790, 1534.780 1647.081, 1535.145 1653.316, 1542.964 1658.792, 1549.829 1665.026, 1557.648 1671.261, 1565.466 1677.496, 1573.284 1682.562, 1579.637 1676.335, 1571.813 1670.107, 1563.989 1663.879, 1556.165 1657.652, 1548.341 1651.424, 1540.517 1647.653, 1535.779 1647.320, 1535.361 1643.375, 1530.405 1647.232, 1535.264 1647.549, 1535.664 1653.766, 1543.497 1658.792, 1549.829 1665.008, 1557.662 1671.225, 1565.495 1677.441, 1573.328 1682.534, 1579.745 1688.503, 1587.768 1694.471, 1595.792 1700.440, 1603.815 1706.408, 1611.839 1712.377, 1619.862 1718.345, 1627.886 1719.800, 1629.841 1725.512, 1638.048 1731.225, 1646.256 1736.938, 1654.464 1742.650, 1662.671 1748.363, 1670.879 1754.337, 1679.462 1759.767, 1687.860 1765.197, 1696.257 1770.627, 1704.654 1776.057, 1713.052 1781.487, 1721.449 1785.319, 1727.375 1790.417, 1735.978 1795.514, 1744.581 1800.612, 1753.184 1805.710, 1761.788 1810.807, 1770.391 1811.688, 1771.878 1811.951, 1772.321 1811.530, 1771.575 1811.688, 1771.878 1816.324, 1780.739 1820.959, 1789.600 1825.594, 1798.460 1830.230, 1807.321 1832.315, 1811.307 1832.655, 1811.958 1832.750, 1812.138 1832.641, 1811.922 1832.227, 1811.094 1832.315, 1811.307 1833.745, 1814.768 1837.562, 1824.011 1839.034, 1827.574 1842.851, 1836.817 1845.874, 1844.135 1842.092, 1834.878 1839.023, 1827.362 1835.241, 1818.105 1831.460, 1808.847 1831.261, 1808.361 1832.641, 1811.922 1832.655, 1811.958 1833.745, 1814.768 1837.358, 1824.093 1839.084, 1828.545 1842.697, 1837.870 1843.869, 1840.894 1845.410, 1850.775 1846.950, 1860.655 1847.737, 1865.704 1847.111, 1868.685 1845.589, 1875.930 1845.424, 1876.717 1845.393, 1876.864 1844.821, 1879.589 1844.072, 1883.152 1844.857, 1879.829 1845.581, 1876.765 1845.623, 1876.590 1845.840, 1875.668 1847.915, 1866.888 1847.111, 1868.685 1844.161, 1875.278 1843.744, 1876.210 1842.373, 1879.273 1841.229, 1881.829 1844.556, 1877.862 1845.393, 1876.864 1845.498, 1876.739 1845.623, 1876.590 1850.169, 1871.169 1845.840, 1875.668 1845.589, 1875.930 1844.965, 1876.578 1844.443, 1877.121 1842.373, 1879.273 1839.184, 1882.587 1830.145, 1885.835 1822.616, 1888.540 1832.379, 1886.374 1837.299, 1885.283 1830.145, 1885.835 1820.174, 1886.604 1815.384, 1886.974 1805.679, 1885.865 1795.772, 1884.503 1785.866, 1883.141 1784.418, 1882.942 1778.373, 1882.111 1788.219, 1883.863 1791.900, 1884.518 1784.418, 1882.942 1774.632, 1880.880 1764.847, 1878.819 1761.475, 1878.108 1760.642, 1877.950 1750.818, 1876.082 1740.994, 1874.214 1740.207, 1874.064 1730.432, 1871.954 1720.657, 1869.845 1712.042, 1867.986 1702.205, 1866.188 1692.368, 1864.389 1684.766, 1862.999 1674.918, 1861.260 1665.071, 1859.520 1661.700, 1858.925 1651.806, 1857.473 1641.912, 1856.021 1632.018, 1854.568 1629.080, 1854.137 1619.143, 1853.022 1609.205, 1851.906 1599.267, 1850.791 1590.341, 1849.789 1580.376, 1848.951 1570.411, 1848.114 1560.446, 1847.276 1550.481, 1846.439 1545.238, 1845.998 1535.253, 1845.443 1530.117, 1845.158 1520.133, 1844.604 1518.239, 1844.498 1517.886, 1844.479 1507.901, 1843.924 1497.917, 1843.370 1496.194, 1843.274 1506.172, 1843.941 1516.149, 1844.608 1524.894, 1845.192 1525.299, 1845.219 1535.277, 1845.886 1545.254, 1846.553 1555.232, 1847.220 1559.166, 1847.483 1549.198, 1846.685 1539.230, 1845.888 1530.117, 1845.158 1520.149, 1844.360 1510.181, 1843.562 1504.130, 1843.078 " />
            <path fill="none" stroke-width="3.0" stroke-linecap="butt" stroke-opacity="1.0" stroke="#61DAFB" stroke-linejoin="round" d=" M 1504.130, 1843.078 1496.845, 1842.744 1486.855, 1842.285 1476.866, 1841.827 1466.876, 1841.369 1456.887, 1840.910 1455.205, 1840.833 1455.074, 1840.827 1454.419, 1840.797 1449.475, 1840.570 1454.884, 1840.849 1455.581, 1840.885 1455.735, 1840.893 1465.722, 1841.409 1475.709, 1841.924 1485.695, 1842.440 1495.682, 1842.956 1505.669, 1843.471 1510.380, 1843.714 1510.751, 1843.734 " />
            <path fill="none" stroke-width="3.0" stroke-linecap="butt" stroke-opacity="1.0" stroke="#61DAFB" stroke-linejoin="round" d=" M 1510.751, 1843.734 1504.130, 1843.078 1510.144, 1843.690 1510.380, 1843.714 1517.886, 1844.479 1524.894, 1845.192 1534.843, 1846.205 1544.791, 1847.219 1554.740, 1848.231 1564.689, 1849.245 1571.543, 1849.942 1561.594, 1848.926 1551.646, 1847.910 1541.698, 1846.894 1531.750, 1845.878 1525.299, 1845.219 1518.239, 1844.498 1510.751, 1843.734 " />
            <path fill="none" stroke-width="3.0" stroke-linecap="butt" stroke-opacity="1.0" stroke="#61DAFB" stroke-linejoin="round" d=" M 699.700, 1104.621 694.831, 1111.552 699.427, 1105.031 705.187, 1096.856 710.948, 1088.682 714.324, 1083.891 715.315, 1082.485 710.245, 1089.114 714.324, 1083.891 720.479, 1076.010 726.634, 1068.128 729.563, 1064.377 732.116, 1061.108 726.982, 1067.369 729.563, 1064.377 736.096, 1056.807 742.629, 1049.236 743.366, 1048.382 746.158, 1045.147 750.164, 1040.504 745.826, 1045.495 745.098, 1046.333 740.245, 1051.648 735.740, 1056.390 742.636, 1049.148 743.366, 1048.382 750.262, 1041.140 757.158, 1033.898 760.134, 1030.773 756.109, 1034.887 752.707, 1038.301 750.073, 1041.035 746.158, 1045.147 745.826, 1045.495 738.930, 1052.737 732.034, 1059.979 725.698, 1066.633 720.327, 1072.854 713.792, 1080.423 707.257, 1087.992 702.519, 1093.478 696.359, 1101.356 690.199, 1109.233 684.039, 1117.111 680.599, 1121.511 " />
            <path fill="none" stroke-width="3.0" stroke-linecap="butt" stroke-opacity="1.0" stroke="#61DAFB" stroke-linejoin="round" d=" M 1680.328, 1571.543 1675.413, 1566.156 1668.673, 1558.768 1661.934, 1551.380 1655.194, 1543.992 1648.455, 1536.604 1647.320, 1535.361 1647.232, 1535.264 1646.790, 1534.780 1643.454, 1531.123 1647.081, 1535.145 1647.549, 1535.664 1647.653, 1535.779 1654.350, 1543.205 1661.047, 1550.631 1667.744, 1558.057 1674.441, 1565.484 1681.138, 1572.910 1684.297, 1576.414 1684.546, 1576.689 " />
            <path fill="none" stroke-width="3.0" stroke-linecap="butt" stroke-opacity="1.0" stroke="#61DAFB" stroke-linejoin="round" d=" M 1684.546, 1576.689 1680.328, 1571.543 1684.147, 1576.229 1684.297, 1576.414 1689.064, 1582.261 1693.515, 1587.721 1699.833, 1595.472 1706.152, 1603.223 1712.470, 1610.974 1718.788, 1618.725 1723.142, 1624.065 1716.826, 1616.312 1710.510, 1608.560 1704.194, 1600.807 1697.878, 1593.054 1693.781, 1588.026 1689.299, 1582.524 1684.546, 1576.689 " />
            <path fill="none" stroke-width="3.0" stroke-linecap="butt" stroke-opacity="1.0" stroke="#61DAFB" stroke-linejoin="round" d=" M 1633.663, 480.561 1633.692, 480.555 " />
            <path fill="none" stroke-width="3.0" stroke-linecap="butt" stroke-opacity="1.0" stroke="#61DAFB" stroke-linejoin="round" d=" M 2553.536, 1398.400 2558.206, 1389.558 2558.745, 1388.538 2563.416, 1379.696 2563.873, 1378.830 2568.544, 1369.988 2568.838, 1369.431 2573.509, 1360.589 2573.558, 1360.495 2577.952, 1352.178 2581.937, 1344.633 2585.433, 1338.015 2588.357, 1332.478 2590.617, 1328.143 2592.073, 1324.985 2596.186, 1315.870 2600.299, 1306.755 2604.413, 1297.641 2608.526, 1288.526 2609.409, 1286.570 2612.624, 1277.101 2615.839, 1267.632 2619.054, 1258.162 2622.156, 1249.026 2624.397, 1239.280 2626.638, 1229.534 2628.878, 1219.789 2630.596, 1212.318 2631.063, 1210.103 2632.310, 1200.181 2633.556, 1190.259 2634.802, 1180.337 2635.589, 1174.070 2635.866, 1164.073 2636.144, 1154.077 2636.422, 1144.081 2636.571, 1138.716 2635.943, 1128.736 2635.315, 1118.756 2634.687, 1108.775 2634.385, 1103.973 2632.944, 1094.078 2631.504, 1084.182 2630.063, 1074.286 2629.406, 1069.772 2627.264, 1060.004 2625.122, 1050.236 2622.980, 1040.468 2622.009, 1036.041 2619.284, 1026.420 2616.560, 1016.798 2613.834, 1007.177 2612.570, 1002.712 2609.364, 993.240 2606.157, 983.769 2602.950, 974.297 2601.407, 969.740 2600.768, 968.101 2597.127, 958.788 2593.485, 949.474 2589.844, 940.161 2587.992, 935.425 2583.914, 926.294 2579.836, 917.163 2575.758, 908.033 2573.613, 903.231 2569.112, 894.301 2564.612, 885.371 2560.111, 876.441 2557.669, 871.596 2552.759, 862.885 2547.848, 854.174 2542.938, 845.462 2540.196, 840.598 2534.888, 832.123 2529.581, 823.647 2524.273, 815.172 2521.230, 810.313 2515.538, 802.091 2509.845, 793.869 2507.838, 790.969 2502.145, 782.748 2500.809, 780.818 2494.744, 772.867 2488.678, 764.917 2482.613, 756.966 2478.969, 752.189 2472.543, 744.527 2466.117, 736.864 2461.340, 731.168 2455.750, 724.501 2448.981, 717.140 2442.213, 709.779 2435.444, 702.418 2431.213, 697.816 2424.118, 690.769 2417.024, 683.721 2409.929, 676.674 2405.420, 672.194 2398.017, 665.472 2390.613, 658.750 2383.210, 652.027 2378.437, 647.693 2370.740, 641.309 2363.043, 634.924 2355.347, 628.539 2350.325, 624.373 2348.658, 623.085 2340.693, 617.039 2332.727, 610.993 2324.762, 604.948 2319.482, 600.940 2311.254, 595.258 2303.025, 589.575 2294.797, 583.893 2289.302, 580.098 2280.826, 574.793 2272.349, 569.487 2263.873, 564.181 2258.181, 560.619 2249.473, 555.703 2240.765, 550.787 2232.057, 545.871 2226.187, 542.556 2217.266, 538.038 2208.345, 533.520 2199.424, 529.001 2193.396, 525.948 2184.281, 521.834 2175.167, 517.720 2166.052, 513.606 2159.891, 510.825 2150.601, 507.123 2141.312, 503.421 2132.022, 499.719 2125.752, 497.221 2116.306, 493.938 2106.860, 490.656 2097.414, 487.374 2091.060, 485.167 2081.476, 482.312 2071.892, 479.458 2062.308, 476.604 2055.897, 474.694 2046.194, 472.277 2036.491, 469.860 2026.787, 467.442 2020.344, 465.837 2010.540, 463.865 2000.737, 461.894 1990.933, 459.923 1984.482, 458.626 1979.008, 457.786 1969.124, 456.269 1959.240, 454.752 1949.355, 453.236 1948.392, 453.088 1958.276, 454.605 1968.160, 456.123 1978.044, 457.640 1982.146, 458.270 1979.008, 457.786 1969.125, 456.263 1959.241, 454.740 1949.358, 453.218 1946.061, 452.710 1936.118, 451.645 1926.175, 450.581 1916.231, 449.517 1909.830, 448.831 1899.849, 448.227 1889.867, 447.623 1879.885, 447.018 1873.541, 446.634 1863.542, 446.492 1853.543, 446.350 1843.544, 446.207 1837.279, 446.118 1827.285, 446.440 1817.290, 446.762 1807.295, 447.084 1801.133, 447.282 1791.164, 448.071 1781.195, 448.860 1771.226, 449.649 1765.187, 450.127 1757.558, 451.095 " />
            <path fill="none" stroke-width="3.0" stroke-linecap="butt" stroke-opacity="1.0" stroke="#61DAFB" stroke-linejoin="round" d=" M 1605.367, 479.500 1595.511, 481.190 1585.655, 482.880 1575.798, 484.570 1570.179, 485.534 1560.417, 487.703 1550.655, 489.872 1540.893, 492.041 1535.208, 493.304 1525.561, 495.938 1515.914, 498.571 1507.952, 500.745 " />
            <path fill="none" stroke-width="3.0" stroke-linecap="butt" stroke-opacity="1.0" stroke="#61DAFB" stroke-linejoin="round" d=" M 2736.804, 1999.151 2746.359, 1996.201 2747.462, 1995.861 2757.017, 1992.911 2757.952, 1992.622 2767.507, 1989.672 2768.109, 1989.487 2777.664, 1986.537 2777.765, 1986.506 2786.753, 1983.731 2794.906, 1981.214 2802.058, 1979.006 2808.041, 1977.159 2812.704, 1975.692 2815.966, 1974.488 2825.320, 1970.951 2834.674, 1967.415 2844.028, 1963.879 2853.381, 1960.342 2855.389, 1959.583 2864.358, 1955.161 2873.327, 1950.738 2882.296, 1946.316 2890.950, 1942.049 2899.426, 1936.742 2907.901, 1931.435 2916.377, 1926.129 2922.875, 1922.061 2924.771, 1920.825 2932.668, 1914.690 2940.565, 1908.555 2948.462, 1902.420 2953.450, 1898.545 2960.715, 1891.673 2967.980, 1884.801 2975.244, 1877.929 2979.143, 1874.241 2985.756, 1866.740 2992.369, 1859.239 2998.982, 1851.737 3002.164, 1848.128 3008.143, 1840.113 3014.122, 1832.097 3020.100, 1824.081 3022.828, 1820.424 3028.220, 1812.002 3033.613, 1803.580 3039.005, 1795.159 3041.449, 1791.342 3046.325, 1782.612 3051.202, 1773.882 3056.079, 1765.151 3058.342, 1761.101 3062.771, 1752.136 3067.202, 1743.170 3071.632, 1734.205 3073.763, 1729.892 3074.470, 1728.282 3078.481, 1719.121 3082.491, 1709.961 3086.502, 1700.800 3088.541, 1696.142 3092.114, 1686.802 3095.687, 1677.462 3099.260, 1668.122 3101.138, 1663.210 3104.270, 1653.713 3107.402, 1644.216 3110.534, 1634.719 3112.233, 1629.567 3114.921, 1619.935 3117.609, 1610.303 3120.296, 1600.671 3121.797, 1595.292 3124.037, 1585.546 3126.277, 1575.801 3128.517, 1566.055 3129.802, 1560.467 3131.590, 1550.628 3133.378, 1540.789 3134.009, 1537.320 3135.798, 1527.481 3136.218, 1525.170 3137.551, 1515.260 3138.884, 1505.349 3140.217, 1495.438 3141.018, 1489.483 3141.892, 1479.522 3142.767, 1469.560 3143.417, 1462.154 3144.178, 1453.487 3144.597, 1443.496 3145.016, 1433.505 3145.435, 1423.514 3145.696, 1417.268 3145.663, 1407.268 3145.630, 1397.268 3145.597, 1387.268 3145.576, 1380.912 3145.094, 1370.924 3144.613, 1360.935 3144.131, 1350.947 3143.821, 1344.507 3142.893, 1334.550 3141.965, 1324.593 3141.038, 1314.636 3140.432, 1308.139 3140.165, 1306.050 3138.807, 1296.142 3137.450, 1286.235 3136.092, 1276.327 3135.193, 1269.761 3133.392, 1259.924 3131.592, 1250.087 3129.792, 1240.251 3128.590, 1233.683 3126.347, 1223.937 3124.105, 1214.192 3121.863, 1204.447 3120.358, 1197.903 3117.677, 1188.269 3114.995, 1178.635 3112.314, 1169.001 3110.506, 1162.507 3107.393, 1153.004 3104.280, 1143.501 3101.167, 1133.998 3099.064, 1127.577 3095.528, 1118.223 3091.991, 1108.869 3088.456, 1099.515 3086.065, 1093.192 3082.114, 1084.005 3078.163, 1074.819 3074.212, 1065.633 3071.545, 1059.432 3067.187, 1050.432 3062.828, 1041.431 3058.470, 1032.431 3055.538, 1026.377 3050.780, 1017.582 3046.021, 1008.787 3041.262, 999.992 3038.080, 994.109 3032.927, 985.538 3027.776, 976.967 3022.624, 968.396 3019.203, 962.706 3013.664, 954.379 3008.126, 946.053 3002.588, 937.727 2998.943, 932.248 2995.369, 927.377 2989.452, 919.316 2983.535, 911.254 2977.618, 903.192 2977.340, 902.812 2983.256, 910.875 2989.172, 918.937 2995.088, 926.999 2997.543, 930.344 2995.369, 927.377 2989.457, 919.312 2983.545, 911.247 2977.633, 903.181 2975.959, 900.897 2969.680, 893.113 2963.402, 885.330 2957.124, 877.546 2953.082, 872.535 2946.451, 865.050 2939.821, 857.564 2933.190, 850.079 2928.975, 845.321 2922.006, 838.150 2915.036, 830.979 2908.066, 823.808 2903.700, 819.315 2896.405, 812.475 2889.110, 805.635 2881.815, 798.796 2877.317, 794.578 2869.710, 788.087 2862.103, 781.596 2854.496, 775.105 2849.888, 771.172 2843.809, 766.462 " />
            <path fill="none" stroke-width="3.0" stroke-linecap="butt" stroke-opacity="1.0" stroke="#61DAFB" stroke-linejoin="round" d=" M 2716.109, 678.933 2707.944, 673.158 2699.780, 667.384 2691.615, 661.609 2686.961, 658.317 2678.524, 652.948 2670.088, 647.579 2661.651, 642.210 2656.738, 639.083 2648.054, 634.124 2639.370, 629.165 2632.204, 625.072 " />
            <path fill="none" stroke-width="3.0" stroke-linecap="butt" stroke-opacity="1.0" stroke="#61DAFB" stroke-linejoin="round" d=" M 2441.600, 2553.536 2450.442, 2558.206 2451.462, 2558.745 2460.304, 2563.416 2461.170, 2563.873 2470.012, 2568.544 2470.569, 2568.838 2479.411, 2573.509 2479.505, 2573.558 2487.822, 2577.952 2495.367, 2581.937 2501.985, 2585.433 2507.522, 2588.357 2511.857, 2590.617 2515.015, 2592.073 2524.130, 2596.186 2533.245, 2600.299 2542.359, 2604.413 2551.474, 2608.526 2553.430, 2609.409 2562.899, 2612.624 2572.368, 2615.839 2581.837, 2619.054 2590.974, 2622.156 2600.720, 2624.397 2610.466, 2626.638 2620.211, 2628.879 2627.682, 2630.596 2629.897, 2631.064 2639.819, 2632.310 2649.741, 2633.556 2659.663, 2634.802 2665.930, 2635.589 2675.927, 2635.866 2685.923, 2636.144 2695.919, 2636.422 2701.284, 2636.571 2711.264, 2635.943 2721.244, 2635.315 2731.225, 2634.687 2736.027, 2634.385 2745.922, 2632.944 2755.818, 2631.504 2765.714, 2630.063 2770.228, 2629.406 2779.996, 2627.264 2789.764, 2625.122 2799.532, 2622.980 2803.959, 2622.009 2813.580, 2619.285 2823.202, 2616.560 2832.823, 2613.835 2837.288, 2612.570 2846.760, 2609.364 2856.231, 2606.157 2865.703, 2602.950 2870.260, 2601.407 2871.899, 2600.768 2881.212, 2597.127 2890.526, 2593.485 2899.839, 2589.844 2904.575, 2587.992 2913.706, 2583.914 2922.837, 2579.836 2931.967, 2575.758 2936.769, 2573.613 2945.699, 2569.112 2954.629, 2564.612 2963.559, 2560.111 2968.404, 2557.669 2977.115, 2552.759 2985.826, 2547.848 2994.538, 2542.938 2999.402, 2540.196 3007.877, 2534.888 3016.352, 2529.581 3024.828, 2524.273 3029.687, 2521.230 3037.909, 2515.538 3046.131, 2509.846 3049.030, 2507.838 3057.251, 2502.146 3059.182, 2500.809 3067.133, 2494.744 3075.083, 2488.678 3083.034, 2482.613 3087.811, 2478.969 3095.473, 2472.543 3103.136, 2466.118 3108.832, 2461.341 3115.499, 2455.750 3122.860, 2448.981 3130.221, 2442.213 3137.582, 2435.444 3142.183, 2431.213 3149.231, 2424.118 3156.279, 2417.024 3163.326, 2409.930 3167.806, 2405.420 3174.528, 2398.017 3181.250, 2390.613 3187.973, 2383.210 3192.307, 2378.437 3198.691, 2370.740 3205.076, 2363.043 3211.461, 2355.347 3215.627, 2350.325 3216.915, 2348.658 3222.961, 2340.693 3229.007, 2332.727 3235.052, 2324.762 3239.060, 2319.483 3244.742, 2311.254 3250.425, 2303.025 3256.107, 2294.797 3259.901, 2289.302 3265.207, 2280.826 3270.513, 2272.349 3275.818, 2263.873 3279.381, 2258.182 3284.297, 2249.473 3289.213, 2240.765 3294.129, 2232.057 3297.443, 2226.187 3301.962, 2217.266 3306.480, 2208.345 3310.999, 2199.424 3314.052, 2193.396 3318.166, 2184.281 3322.280, 2175.167 3326.394, 2166.052 3329.175, 2159.891 3332.876, 2150.601 3336.578, 2141.312 3340.280, 2132.022 3342.779, 2125.752 3346.061, 2116.306 3349.344, 2106.860 3352.626, 2097.414 3354.833, 2091.060 3357.688, 2081.476 3360.542, 2071.892 3363.396, 2062.308 3365.305, 2055.897 3367.723, 2046.194 3370.140, 2036.491 3372.558, 2026.787 3374.163, 2020.344 3376.135, 2010.540 3378.106, 2000.737 3380.077, 1990.933 3381.374, 1984.482 3382.277, 1978.597 3383.794, 1968.713 3385.311, 1958.829 3386.828, 1948.944 3386.912, 1948.392 3385.395, 1958.276 3383.878, 1968.160 3382.360, 1978.044 3381.730, 1982.146 3382.277, 1978.597 3383.800, 1968.714 3385.323, 1958.831 3386.846, 1948.947 3387.290, 1946.061 3388.355, 1936.118 3389.419, 1926.174 3390.484, 1916.231 3391.169, 1909.830 3391.773, 1899.848 3392.377, 1889.867 3392.982, 1879.885 3393.366, 1873.541 3393.509, 1863.542 3393.651, 1853.543 3393.793, 1843.544 3393.883, 1837.279 3393.561, 1827.284 3393.239, 1817.289 3392.917, 1807.295 3392.718, 1801.132 3391.929, 1791.163 3391.141, 1781.194 3390.352, 1771.226 3389.874, 1765.187 3388.906, 1757.557 " />
            <path fill="none" stroke-width="3.0" stroke-linecap="butt" stroke-opacity="1.0" stroke="#61DAFB" stroke-linejoin="round" d=" M 3360.500, 1605.367 3358.811, 1595.510 3357.121, 1585.654 3355.431, 1575.798 3354.467, 1570.179 3352.298, 1560.417 3350.129, 1550.655 3347.960, 1540.893 3346.697, 1535.208 3344.063, 1525.561 3341.430, 1515.914 3339.256, 1507.952 " />
            <path fill="none" stroke-width="3.0" stroke-linecap="butt" stroke-opacity="1.0" stroke="#61DAFB" stroke-linejoin="round" d=" M 1840.849, 2736.804 1843.799, 2746.359 1844.139, 2747.462 1847.089, 2757.017 1847.378, 2757.952 1850.328, 2767.507 1850.514, 2768.109 1853.463, 2777.664 1853.494, 2777.765 1856.269, 2786.753 1858.786, 2794.906 1860.994, 2802.058 1862.841, 2808.040 1864.309, 2812.704 1865.512, 2815.966 1869.049, 2825.320 1872.585, 2834.674 1876.122, 2844.027 1879.658, 2853.381 1880.417, 2855.389 1884.839, 2864.358 1889.262, 2873.326 1893.684, 2882.295 1897.951, 2890.950 1903.258, 2899.425 1908.565, 2907.901 1913.871, 2916.377 1917.939, 2922.874 1919.175, 2924.771 1925.310, 2932.668 1931.445, 2940.565 1937.580, 2948.462 1941.455, 2953.450 1948.327, 2960.715 1955.199, 2967.980 1962.071, 2975.244 1965.759, 2979.143 1973.260, 2985.756 1980.761, 2992.369 1988.263, 2998.982 1991.872, 3002.164 1999.888, 3008.143 2007.904, 3014.122 2015.919, 3020.100 2019.577, 3022.828 2027.998, 3028.220 2036.420, 3033.613 2044.841, 3039.005 2048.658, 3041.449 2057.388, 3046.326 2066.118, 3051.202 2074.849, 3056.079 2078.899, 3058.341 2087.865, 3062.772 2096.830, 3067.202 2105.795, 3071.632 2110.108, 3073.763 2111.719, 3074.470 2120.879, 3078.481 2130.040, 3082.491 2139.200, 3086.502 2143.858, 3088.541 2153.198, 3092.114 2162.538, 3095.687 2171.878, 3099.260 2176.790, 3101.138 2186.287, 3104.270 2195.784, 3107.402 2205.281, 3110.534 2210.433, 3112.233 2220.065, 3114.921 2229.697, 3117.609 2239.329, 3120.296 2244.708, 3121.797 2254.454, 3124.037 2264.199, 3126.277 2273.945, 3128.517 2279.533, 3129.801 2289.372, 3131.590 2299.211, 3133.378 2302.679, 3134.009 2312.518, 3135.797 2314.830, 3136.218 2324.740, 3137.551 2334.651, 3138.884 2344.562, 3140.217 2350.517, 3141.017 2360.478, 3141.892 2370.440, 3142.767 2377.846, 3143.417 2386.513, 3144.178 2396.504, 3144.597 2406.495, 3145.016 2416.486, 3145.434 2422.732, 3145.696 2432.732, 3145.663 2442.732, 3145.630 2452.732, 3145.597 2459.088, 3145.576 2469.076, 3145.094 2479.065, 3144.613 2489.053, 3144.131 2495.493, 3143.820 2505.450, 3142.893 2515.407, 3141.965 2525.364, 3141.037 2531.861, 3140.432 2533.950, 3140.165 2543.858, 3138.807 2553.765, 3137.450 2563.673, 3136.092 2570.239, 3135.193 2580.076, 3133.392 2589.912, 3131.592 2599.749, 3129.792 2606.317, 3128.589 2616.063, 3126.347 2625.808, 3124.105 2635.553, 3121.863 2642.097, 3120.358 2651.731, 3117.676 2661.365, 3114.995 2670.999, 3112.314 2677.493, 3110.506 2686.996, 3107.393 2696.499, 3104.280 2706.002, 3101.167 2712.423, 3099.064 2721.777, 3095.528 2731.131, 3091.992 2740.485, 3088.456 2746.808, 3086.065 2755.995, 3082.114 2765.181, 3078.163 2774.367, 3074.212 2780.568, 3071.545 2789.568, 3067.187 2798.569, 3062.828 2807.569, 3058.470 2813.622, 3055.538 2822.417, 3050.780 2831.213, 3046.021 2840.008, 3041.263 2845.891, 3038.080 2854.462, 3032.928 2863.033, 3027.776 2871.604, 3022.624 2877.294, 3019.203 2885.621, 3013.664 2893.947, 3008.126 2902.273, 3002.588 2907.752, 2998.943 2912.584, 2995.397 2920.646, 2989.480 2928.707, 2983.563 2936.769, 2977.647 2937.188, 2977.340 2929.125, 2983.256 2921.063, 2989.172 2913.001, 2995.088 2909.656, 2997.543 2912.584, 2995.397 2920.649, 2989.485 2928.715, 2983.573 2936.780, 2977.661 2939.103, 2975.959 2946.886, 2969.680 2954.670, 2963.402 2962.454, 2957.124 2967.464, 2953.082 2974.950, 2946.451 2982.436, 2939.821 2989.921, 2933.190 2994.679, 2928.975 3001.850, 2922.006 3009.021, 2915.036 3016.192, 2908.066 3020.685, 2903.700 3027.524, 2896.405 3034.364, 2889.110 3041.204, 2881.815 3045.421, 2877.317 3051.913, 2869.710 3058.404, 2862.103 3064.895, 2854.496 3068.827, 2849.888 3073.537, 2843.809 " />
            <path fill="none" stroke-width="3.0" stroke-linecap="butt" stroke-opacity="1.0" stroke="#61DAFB" stroke-linejoin="round" d=" M 3161.067, 2716.108 3166.841, 2707.944 3172.616, 2699.780 3178.390, 2691.615 3181.682, 2686.960 3187.051, 2678.524 3192.420, 2670.088 3197.789, 2661.651 3200.916, 2656.738 3205.875, 2648.054 3210.835, 2639.370 3214.928, 2632.203 " />
            <path fill="none" stroke-width="3.0" stroke-linecap="butt" stroke-opacity="1.0" stroke="#61DAFB" stroke-linejoin="round" d=" M 1286.465, 2441.599 1281.794, 2450.442 1281.255, 2451.462 1276.584, 2460.304 1276.127, 2461.170 1271.456, 2470.012 1271.162, 2470.569 1266.492, 2479.411 1266.442, 2479.505 1262.049, 2487.822 1258.063, 2495.367 1254.568, 2501.985 1251.643, 2507.522 1249.383, 2511.857 1247.928, 2515.015 1243.814, 2524.130 1239.701, 2533.245 1235.587, 2542.359 1231.474, 2551.474 1230.591, 2553.430 1227.376, 2562.899 1224.161, 2572.368 1220.946, 2581.837 1217.844, 2590.974 1215.603, 2600.720 1213.362, 2610.466 1211.122, 2620.211 1209.404, 2627.682 1208.937, 2629.897 1207.691, 2639.819 1206.444, 2649.741 1205.198, 2659.663 1204.411, 2665.930 1204.134, 2675.927 1203.856, 2685.923 1203.578, 2695.919 1203.429, 2701.284 1204.057, 2711.264 1204.685, 2721.245 1205.313, 2731.225 1205.615, 2736.027 1207.056, 2745.922 1208.496, 2755.818 1209.937, 2765.714 1210.594, 2770.228 1212.736, 2779.996 1214.878, 2789.764 1217.020, 2799.532 1217.991, 2803.959 1220.716, 2813.580 1223.441, 2823.202 1226.166, 2832.823 1227.430, 2837.288 1230.637, 2846.759 1233.843, 2856.231 1237.050, 2865.703 1238.593, 2870.260 1239.232, 2871.899 1242.874, 2881.212 1246.515, 2890.526 1250.157, 2899.839 1252.008, 2904.575 1256.086, 2913.706 1260.164, 2922.836 1264.243, 2931.967 1266.387, 2936.769 1270.888, 2945.699 1275.389, 2954.629 1279.889, 2963.558 1282.331, 2968.403 1287.242, 2977.115 1292.152, 2985.826 1297.062, 2994.537 1299.804, 2999.402 1305.112, 3007.877 1310.419, 3016.352 1315.727, 3024.828 1318.770, 3029.687 1324.462, 3037.909 1330.155, 3046.130 1332.161, 3049.029 1337.854, 3057.251 1339.191, 3059.182 1345.257, 3067.133 1351.322, 3075.083 1357.387, 3083.034 1361.032, 3087.811 1367.457, 3095.473 1373.883, 3103.136 1378.660, 3108.832 1384.250, 3115.499 1391.019, 3122.860 1397.787, 3130.221 1404.556, 3137.582 1408.787, 3142.183 1415.882, 3149.231 1422.976, 3156.279 1430.071, 3163.326 1434.580, 3167.806 1441.983, 3174.528 1449.387, 3181.250 1456.790, 3187.972 1461.564, 3192.307 1469.260, 3198.691 1476.957, 3205.076 1484.653, 3211.461 1489.675, 3215.627 1491.342, 3216.915 1499.307, 3222.961 1507.273, 3229.006 1515.238, 3235.052 1520.518, 3239.060 1528.746, 3244.742 1536.975, 3250.424 1545.203, 3256.107 1550.698, 3259.901 1559.174, 3265.207 1567.651, 3270.513 1576.127, 3275.818 1581.819, 3279.381 1590.527, 3284.297 1599.235, 3289.213 1607.943, 3294.129 1613.813, 3297.443 1622.734, 3301.962 1631.655, 3306.480 1640.576, 3310.999 1646.604, 3314.052 1655.719, 3318.166 1664.833, 3322.279 1673.948, 3326.393 1680.109, 3329.174 1689.399, 3332.876 1698.688, 3336.578 1707.978, 3340.280 1714.248, 3342.779 1723.694, 3346.061 1733.140, 3349.343 1742.586, 3352.625 1748.940, 3354.833 1758.524, 3357.687 1768.108, 3360.542 1777.692, 3363.396 1784.103, 3365.305 1793.806, 3367.723 1803.509, 3370.140 1813.213, 3372.558 1819.656, 3374.163 1829.460, 3376.134 1839.263, 3378.105 1849.067, 3380.077 1855.518, 3381.374 1861.380, 3382.273 1871.265, 3383.790 1881.149, 3385.307 1891.033, 3386.824 1891.608, 3386.912 1881.724, 3385.395 1871.840, 3383.877 1861.956, 3382.360 1857.854, 3381.730 1861.380, 3382.273 1871.264, 3383.796 1881.147, 3385.319 1891.030, 3386.842 1893.939, 3387.290 1903.882, 3388.354 1913.826, 3389.419 1923.769, 3390.483 1930.170, 3391.168 1940.152, 3391.773 1950.133, 3392.377 1960.115, 3392.982 1966.459, 3393.366 1976.458, 3393.508 1986.457, 3393.650 1996.456, 3393.793 2002.721, 3393.882 2012.716, 3393.560 2022.711, 3393.238 2032.705, 3392.916 2038.868, 3392.718 2048.837, 3391.929 2058.805, 3391.140 2068.774, 3390.351 2074.813, 3389.873 2082.442, 3388.906 " />
            <path fill="none" stroke-width="3.0" stroke-linecap="butt" stroke-opacity="1.0" stroke="#61DAFB" stroke-linejoin="round" d=" M 2234.633, 3360.500 2244.490, 3358.810 2254.345, 3357.120 2264.202, 3355.431 2269.821, 3354.467 2279.583, 3352.298 2289.345, 3350.129 2299.107, 3347.960 2304.792, 3346.696 2314.439, 3344.063 2324.086, 3341.429 2332.048, 3339.256 " />
            <path fill="none" stroke-width="3.0" stroke-linecap="butt" stroke-opacity="1.0" stroke="#61DAFB" stroke-linejoin="round" d=" M 1103.196, 1840.849 1093.641, 1843.799 1092.539, 1844.140 1082.984, 1847.089 1082.048, 1847.378 1072.493, 1850.328 1071.891, 1850.514 1062.336, 1853.463 1062.235, 1853.494 1053.247, 1856.269 1045.094, 1858.786 1037.943, 1860.994 1031.960, 1862.841 1027.296, 1864.309 1024.034, 1865.512 1014.680, 1869.049 1005.327, 1872.585 995.973, 1876.122 986.619, 1879.658 984.612, 1880.417 975.643, 1884.839 966.674, 1889.262 957.705, 1893.684 949.051, 1897.951 940.575, 1903.258 932.099, 1908.565 923.623, 1913.871 917.126, 1917.939 915.229, 1919.175 907.332, 1925.310 899.435, 1931.445 891.538, 1937.580 886.550, 1941.455 879.285, 1948.327 872.021, 1955.199 864.756, 1962.071 860.857, 1965.759 854.244, 1973.260 847.631, 1980.761 841.018, 1988.263 837.836, 1991.872 831.857, 1999.888 825.878, 2007.904 819.900, 2015.920 817.172, 2019.577 811.780, 2027.998 806.387, 2036.420 800.995, 2044.841 798.551, 2048.658 793.675, 2057.388 788.798, 2066.118 783.921, 2074.849 781.659, 2078.899 777.229, 2087.865 772.799, 2096.830 768.368, 2105.795 766.237, 2110.108 765.530, 2111.719 761.520, 2120.879 757.509, 2130.040 753.498, 2139.200 751.459, 2143.858 747.886, 2153.198 744.313, 2162.538 740.741, 2171.878 738.862, 2176.790 735.730, 2186.287 732.598, 2195.784 729.466, 2205.281 727.767, 2210.433 725.079, 2220.065 722.392, 2229.697 719.704, 2239.329 718.203, 2244.708 715.963, 2254.454 713.723, 2264.200 711.483, 2273.946 710.199, 2279.533 708.411, 2289.372 706.622, 2299.211 705.992, 2302.679 704.203, 2312.518 703.783, 2314.830 702.450, 2324.740 701.117, 2334.651 699.784, 2344.562 698.983, 2350.517 698.108, 2360.478 697.234, 2370.440 696.583, 2377.846 695.823, 2386.513 695.404, 2396.504 694.985, 2406.495 694.566, 2416.486 694.304, 2422.732 694.337, 2432.732 694.370, 2442.732 694.403, 2452.732 694.424, 2459.088 694.906, 2469.076 695.388, 2479.065 695.869, 2489.053 696.180, 2495.493 697.108, 2505.450 698.035, 2515.407 698.963, 2525.364 699.568, 2531.861 699.836, 2533.950 701.193, 2543.858 702.550, 2553.765 703.908, 2563.672 704.808, 2570.239 706.608, 2580.076 708.408, 2589.912 710.209, 2599.749 711.411, 2606.317 713.653, 2616.063 715.895, 2625.808 718.137, 2635.553 719.642, 2642.097 722.324, 2651.731 725.005, 2661.365 727.687, 2670.999 729.494, 2677.493 732.607, 2686.996 735.720, 2696.499 738.833, 2706.002 740.937, 2712.423 744.473, 2721.777 748.009, 2731.131 751.545, 2740.485 753.935, 2746.808 757.886, 2755.995 761.837, 2765.181 765.788, 2774.367 768.455, 2780.568 772.814, 2789.568 777.172, 2798.568 781.530, 2807.569 784.462, 2813.622 789.221, 2822.418 793.979, 2831.213 798.738, 2840.008 801.921, 2845.891 807.073, 2854.462 812.225, 2863.033 817.377, 2871.603 820.798, 2877.294 826.336, 2885.621 831.874, 2893.947 837.413, 2902.273 841.057, 2907.752 844.598, 2912.577 850.515, 2920.639 856.432, 2928.700 862.349, 2936.762 862.661, 2937.187 856.745, 2929.125 850.828, 2921.063 844.912, 2913.001 842.457, 2909.655 844.598, 2912.577 850.510, 2920.642 856.422, 2928.708 862.334, 2936.773 864.042, 2939.103 870.320, 2946.886 876.598, 2954.670 882.876, 2962.453 886.918, 2967.464 893.549, 2974.950 900.180, 2982.435 906.811, 2989.921 911.025, 2994.679 917.995, 3001.850 924.964, 3009.021 931.934, 3016.192 936.301, 3020.684 943.596, 3027.524 950.891, 3034.364 958.186, 3041.204 962.684, 3045.421 970.290, 3051.912 977.897, 3058.403 985.504, 3064.895 990.112, 3068.827 996.191, 3073.537 " />
            <path fill="none" stroke-width="3.0" stroke-linecap="butt" stroke-opacity="1.0" stroke="#61DAFB" stroke-linejoin="round" d=" M 1123.892, 3161.067 1132.056, 3166.841 1140.221, 3172.615 1148.385, 3178.390 1148.681, 3178.599 1153.040, 3181.682 1161.476, 3187.051 1169.913, 3192.420 1178.349, 3197.789 1183.263, 3200.916 1191.946, 3205.875 1200.630, 3210.834 1207.797, 3214.928 " />
            <path fill="none" stroke-width="3.0" stroke-linecap="butt" stroke-opacity="1.0" stroke="#61DAFB" stroke-linejoin="round" d=" M 1398.401, 1286.465 1389.559, 1281.794 1388.538, 1281.255 1379.696, 1276.584 1378.830, 1276.127 1369.988, 1271.456 1369.431, 1271.162 1360.589, 1266.492 1360.495, 1266.442 1352.178, 1262.049 1344.633, 1258.063 1338.015, 1254.568 1332.479, 1251.643 1328.143, 1249.383 1324.985, 1247.928 1315.870, 1243.814 1306.756, 1239.701 1297.641, 1235.588 1288.526, 1231.474 1286.570, 1230.591 1277.101, 1227.376 1267.632, 1224.161 1258.163, 1220.947 1249.026, 1217.844 1239.280, 1215.604 1229.535, 1213.363 1219.789, 1211.122 1212.318, 1209.404 1210.103, 1208.937 1200.181, 1207.691 1190.259, 1206.445 1180.337, 1205.199 1174.070, 1204.412 1164.074, 1204.134 1154.078, 1203.856 1144.081, 1203.579 1138.716, 1203.430 1128.736, 1204.058 1118.756, 1204.686 1108.776, 1205.313 1103.974, 1205.615 1094.078, 1207.056 1084.182, 1208.497 1074.287, 1209.937 1069.772, 1210.594 1060.004, 1212.736 1050.236, 1214.878 1040.468, 1217.020 1036.042, 1217.991 1026.420, 1220.716 1016.798, 1223.441 1007.177, 1226.166 1002.713, 1227.430 993.241, 1230.637 983.769, 1233.844 974.297, 1237.050 969.740, 1238.593 968.101, 1239.232 958.788, 1242.874 949.475, 1246.515 940.161, 1250.157 935.425, 1252.009 926.294, 1256.087 917.164, 1260.165 908.033, 1264.243 903.231, 1266.387 894.301, 1270.888 885.372, 1275.389 876.442, 1279.890 871.597, 1282.331 862.885, 1287.242 854.174, 1292.152 845.463, 1297.062 840.598, 1299.804 832.123, 1305.112 823.648, 1310.419 815.172, 1315.727 810.313, 1318.770 802.091, 1324.462 793.870, 1330.155 790.971, 1332.161 782.750, 1337.854 780.818, 1339.191 772.867, 1345.257 764.917, 1351.322 756.966, 1357.387 752.189, 1361.032 744.527, 1367.457 736.864, 1373.883 731.168, 1378.660 724.502, 1384.250 717.141, 1391.019 709.779, 1397.787 702.418, 1404.556 697.817, 1408.787 690.769, 1415.882 683.721, 1422.976 676.674, 1430.071 672.194, 1434.580 665.472, 1441.983 658.750, 1449.387 652.028, 1456.790 647.693, 1461.564 641.309, 1469.260 634.924, 1476.957 628.540, 1484.653 624.374, 1489.675 623.085, 1491.342 617.040, 1499.307 610.994, 1507.273 604.948, 1515.238 600.941, 1520.518 595.258, 1528.746 589.576, 1536.975 583.893, 1545.203 580.099, 1550.698 574.793, 1559.174 569.487, 1567.651 564.182, 1576.127 560.619, 1581.819 555.703, 1590.527 550.787, 1599.235 545.871, 1607.943 542.557, 1613.813 538.039, 1622.734 533.520, 1631.655 529.002, 1640.576 525.949, 1646.604 521.835, 1655.719 517.721, 1664.833 513.607, 1673.948 510.826, 1680.109 507.124, 1689.399 503.422, 1698.688 499.720, 1707.978 497.221, 1714.248 493.939, 1723.694 490.657, 1733.140 487.375, 1742.586 485.167, 1748.940 482.313, 1758.524 479.458, 1768.108 476.604, 1777.692 474.695, 1784.103 472.277, 1793.806 469.860, 1803.509 467.442, 1813.213 465.837, 1819.656 463.866, 1829.460 461.895, 1839.263 459.923, 1849.067 458.626, 1855.518 457.725, 1861.388 456.209, 1871.273 454.692, 1881.157 453.175, 1891.041 453.088, 1891.608 454.606, 1881.724 456.123, 1871.840 457.640, 1861.956 458.270, 1857.854 457.725, 1861.388 456.203, 1871.272 454.680, 1881.155 453.157, 1891.039 452.710, 1893.939 451.646, 1903.882 450.581, 1913.825 449.517, 1923.769 448.832, 1930.170 448.227, 1940.151 447.623, 1950.133 447.019, 1960.115 446.635, 1966.459 446.492, 1976.458 446.350, 1986.457 446.208, 1996.456 446.118, 2002.721 446.440, 2012.716 446.762, 2022.710 447.084, 2032.705 447.283, 2038.868 448.071, 2048.836 448.860, 2058.805 449.649, 2068.774 450.127, 2074.813 451.095, 2082.442 " />
            <path fill="none" stroke-width="3.0" stroke-linecap="butt" stroke-opacity="1.0" stroke="#61DAFB" stroke-linejoin="round" d=" M 1999.151, 1103.196 1996.201, 1093.641 1995.860, 1092.538 1992.911, 1082.983 1992.622, 1082.048 1989.672, 1072.493 1989.486, 1071.891 1986.536, 1062.336 1986.505, 1062.235 1983.731, 1053.247 1981.214, 1045.094 1979.006, 1037.942 1977.159, 1031.959 1975.691, 1027.296 1974.488, 1024.034 1970.951, 1014.680 1967.415, 1005.326 1963.878, 995.972 1960.342, 986.618 1959.583, 984.611 1955.160, 975.642 1950.738, 966.673 1946.316, 957.704 1942.048, 949.050 1936.742, 940.574 1931.435, 932.099 1926.128, 923.623 1922.060, 917.126 1920.825, 915.229 1914.690, 907.332 1908.555, 899.435 1902.420, 891.538 1898.545, 886.550 1891.673, 879.285 1884.801, 872.021 1877.929, 864.756 1874.241, 860.857 1866.740, 854.244 1859.238, 847.631 1851.737, 841.018 1848.128, 837.836 1840.112, 831.857 1832.096, 825.878 1824.080, 819.900 1820.423, 817.172 1812.002, 811.780 1803.580, 806.387 1795.159, 800.995 1791.342, 798.551 1782.612, 793.675 1773.882, 788.798 1765.151, 783.921 1761.101, 781.659 1752.136, 777.229 1743.170, 772.799 1734.205, 768.368 1729.892, 766.237 1728.282, 765.531 1719.121, 761.520 1709.961, 757.509 1700.800, 753.499 1696.142, 751.459 1686.802, 747.886 1677.462, 744.313 1668.122, 740.741 1663.210, 738.862 1653.713, 735.730 1644.216, 732.598 1634.719, 729.466 1629.567, 727.767 1619.935, 725.080 1610.303, 722.392 1600.671, 719.704 1595.292, 718.203 1585.547, 715.963 1575.801, 713.723 1566.055, 711.484 1560.467, 710.199 1550.628, 708.411 1540.789, 706.622 1537.322, 705.992 1527.483, 704.203 1525.170, 703.783 1515.260, 702.450 1505.349, 701.117 1495.438, 699.784 1489.484, 698.983 1479.522, 698.108 1469.560, 697.234 1462.155, 696.583 1453.487, 695.823 1443.496, 695.404 1433.505, 694.985 1423.514, 694.566 1417.268, 694.304 1407.268, 694.337 1397.268, 694.370 1387.268, 694.403 1380.912, 694.424 1370.924, 694.906 1360.935, 695.388 1350.947, 695.870 1344.507, 696.180 1334.550, 697.108 1324.593, 698.035 1314.636, 698.963 1308.139, 699.568 1306.050, 699.836 1296.143, 701.193 1286.235, 702.551 1276.328, 703.908 1269.761, 704.808 1259.924, 706.608 1250.088, 708.408 1240.251, 710.209 1233.683, 711.411 1223.938, 713.653 1214.192, 715.895 1204.447, 718.137 1197.903, 719.642 1188.269, 722.324 1178.635, 725.005 1169.002, 727.687 1162.507, 729.494 1153.004, 732.607 1143.501, 735.720 1133.998, 738.833 1127.577, 740.937 1118.223, 744.473 1108.869, 748.009 1099.515, 751.545 1093.192, 753.935 1084.005, 757.886 1074.819, 761.837 1065.633, 765.788 1059.432, 768.455 1050.432, 772.813 1041.432, 777.172 1032.432, 781.530 1026.378, 784.462 1017.583, 789.220 1008.787, 793.979 999.992, 798.738 994.109, 801.921 985.538, 807.073 976.968, 812.225 968.397, 817.377 962.706, 820.798 954.380, 826.336 946.053, 831.875 937.727, 837.413 932.248, 841.057 927.305, 844.686 919.243, 850.602 911.181, 856.519 903.119, 862.436 902.813, 862.661 910.875, 856.745 918.937, 850.828 926.999, 844.912 930.345, 842.457 927.305, 844.686 919.239, 850.597 911.174, 856.509 903.108, 862.421 900.897, 864.042 893.114, 870.320 885.330, 876.598 877.547, 882.876 872.536, 886.918 865.051, 893.549 857.565, 900.180 850.080, 906.811 845.322, 911.025 838.151, 917.995 830.980, 924.965 823.809, 931.934 819.316, 936.301 812.476, 943.596 805.636, 950.891 798.797, 958.186 794.580, 962.684 788.088, 970.291 781.597, 977.897 775.106, 985.504 771.173, 990.112 766.463, 996.191 " />
            <path fill="none" stroke-width="3.0" stroke-linecap="butt" stroke-opacity="1.0" stroke="#61DAFB" stroke-linejoin="round" d=" M 678.934, 1123.892 673.159, 1132.056 667.385, 1140.221 661.610, 1148.385 658.318, 1153.040 652.949, 1161.476 647.580, 1169.913 642.211, 1178.349 639.084, 1183.263 634.125, 1191.947 629.166, 1200.630 625.073, 1207.797 " />
        </g>
    </g>
</svg>
